# Blender v2.82 (sub 7) OBJ File: 'InitialFile.blend'
# www.blender.org
mtllib body_l_prox_pinvspring_collision.mtl
o body_l_prox_pinvspring_collision_Cube.662
v -0.010000 0.011250 0.010000
v -0.010000 0.050000 0.010000
v -0.010000 0.011250 -0.010000
v -0.010000 0.050000 -0.010000
v 0.010000 0.011250 0.010000
v 0.010000 0.050000 0.010000
v 0.010000 0.011250 -0.010000
v 0.010000 0.050000 -0.010000
v -0.010000 0.060000 0.010000
v -0.010000 0.060000 -0.010000
v 0.010000 0.060000 0.010000
v 0.010000 0.060000 -0.010000
v 0.010005 0.060000 -0.010000
v 0.010005 0.050000 -0.000000
v -0.010005 0.060000 0.010000
v 0.010005 0.060000 0.010000
v -0.010005 0.061951 0.009808
v 0.010005 0.061951 0.009808
v -0.010005 0.063827 0.009239
v 0.010005 0.063827 0.009239
v -0.010005 0.065556 0.008315
v 0.010005 0.065556 0.008315
v -0.010005 0.067071 0.007071
v 0.010005 0.067071 0.007071
v -0.010005 0.068315 0.005556
v 0.010005 0.068315 0.005556
v -0.010005 0.069239 0.003827
v 0.010005 0.069239 0.003827
v -0.010005 0.069808 0.001951
v 0.010005 0.069808 0.001951
v -0.010005 0.070000 -0.000000
v 0.010005 0.070000 -0.000000
v -0.010005 0.069808 -0.001951
v 0.010005 0.069808 -0.001951
v -0.010005 0.069239 -0.003827
v 0.010005 0.069239 -0.003827
v -0.010005 0.068315 -0.005556
v 0.010005 0.068315 -0.005556
v -0.010005 0.067071 -0.007071
v 0.010005 0.067071 -0.007071
v -0.010005 0.065556 -0.008315
v 0.010005 0.065556 -0.008315
v -0.010005 0.063827 -0.009239
v 0.010005 0.063827 -0.009239
v -0.010005 0.061951 -0.009808
v 0.010005 0.061951 -0.009808
v -0.011000 0.060000 -0.002500
v 0.011000 0.060000 -0.002500
v -0.011000 0.059512 -0.002452
v 0.011000 0.059512 -0.002452
v -0.011000 0.059043 -0.002310
v 0.011000 0.059043 -0.002310
v -0.011000 0.058611 -0.002079
v 0.011000 0.058611 -0.002079
v -0.011000 0.058232 -0.001768
v 0.011000 0.058232 -0.001768
v -0.011000 0.057921 -0.001389
v 0.011000 0.057921 -0.001389
v -0.011000 0.057690 -0.000957
v 0.011000 0.057690 -0.000957
v -0.011000 0.057548 -0.000488
v 0.011000 0.057548 -0.000488
v -0.011000 0.057500 -0.000000
v 0.011000 0.057500 -0.000000
v -0.011000 0.057548 0.000488
v 0.011000 0.057548 0.000488
v -0.011000 0.057690 0.000957
v 0.011000 0.057690 0.000957
v -0.011000 0.057921 0.001389
v 0.011000 0.057921 0.001389
v -0.011000 0.058232 0.001768
v 0.011000 0.058232 0.001768
v -0.011000 0.058611 0.002079
v 0.011000 0.058611 0.002079
v -0.011000 0.059043 0.002310
v 0.011000 0.059043 0.002310
v -0.011000 0.059512 0.002452
v 0.011000 0.059512 0.002452
v -0.011000 0.060000 0.002500
v 0.011000 0.060000 0.002500
v -0.011000 0.060488 0.002452
v 0.011000 0.060488 0.002452
v -0.011000 0.060957 0.002310
v 0.011000 0.060957 0.002310
v -0.011000 0.061389 0.002079
v 0.011000 0.061389 0.002079
v -0.011000 0.061768 0.001768
v 0.011000 0.061768 0.001768
v -0.011000 0.062079 0.001389
v 0.011000 0.062079 0.001389
v -0.011000 0.062310 0.000957
v 0.011000 0.062310 0.000957
v -0.011000 0.062452 0.000488
v 0.011000 0.062452 0.000488
v -0.011000 0.062500 -0.000000
v 0.011000 0.062500 -0.000000
v -0.011000 0.062452 -0.000488
v 0.011000 0.062452 -0.000488
v -0.011000 0.062310 -0.000957
v 0.011000 0.062310 -0.000957
v -0.011000 0.062079 -0.001389
v 0.011000 0.062079 -0.001389
v -0.011000 0.061768 -0.001768
v 0.011000 0.061768 -0.001768
v -0.011000 0.061389 -0.002079
v 0.011000 0.061389 -0.002079
v -0.011000 0.060957 -0.002310
v 0.011000 0.060957 -0.002310
v -0.011000 0.060488 -0.002452
v 0.011000 0.060488 -0.002452
v -0.009995 0.050000 -0.010000
v -0.009995 0.050000 0.010000
v 0.010005 0.050000 0.010000
v 0.010005 0.050000 -0.010000
vt 0.625000 0.000000
vt 0.375000 0.250000
vt 0.375000 0.000000
vt 0.625000 0.250000
vt 0.375000 0.500000
vt 0.625000 0.500000
vt 0.375000 0.750000
vt 0.625000 0.750000
vt 0.375000 1.000000
vt 0.125000 0.750000
vt 0.125000 0.500000
vt 0.875000 0.500000
vt 0.625000 1.000000
vt 0.875000 0.750000
vt 1.000000 1.000000
vt 0.968750 0.500000
vt 1.000000 0.500000
vt 0.968750 1.000000
vt 0.937500 0.500000
vt 0.937500 1.000000
vt 0.906250 0.500000
vt 0.906250 1.000000
vt 0.875000 0.500000
vt 0.875000 1.000000
vt 0.843750 0.500000
vt 0.843750 1.000000
vt 0.812500 0.500000
vt 0.812500 1.000000
vt 0.781250 0.500000
vt 0.750000 1.000000
vt 0.750000 0.500000
vt 0.718750 0.500000
vt 0.718750 1.000000
vt 0.687500 0.500000
vt 0.687500 1.000000
vt 0.656250 0.500000
vt 0.656250 1.000000
vt 0.625000 0.500000
vt 0.625000 1.000000
vt 0.593750 0.500000
vt 0.593750 1.000000
vt 0.562500 0.500000
vt 0.562500 1.000000
vt 0.531250 0.500000
vt 0.531250 1.000000
vt 0.500000 0.500000
vt 0.500000 1.000000
vt 0.468750 0.500000
vt 0.468750 1.000000
vt 0.437500 0.500000
vt 0.437500 1.000000
vt 0.406250 0.500000
vt 0.375000 1.000000
vt 0.375000 0.500000
vt 0.343750 0.500000
vt 0.343750 1.000000
vt 0.312500 0.500000
vt 0.312500 1.000000
vt 0.281250 0.500000
vt 0.281250 1.000000
vt 0.250000 0.500000
vt 0.250000 1.000000
vt 0.218750 0.500000
vt 0.218750 1.000000
vt 0.187500 0.500000
vt 0.187500 1.000000
vt 0.156250 0.500000
vt 0.156250 1.000000
vt 0.125000 0.500000
vt 0.125000 1.000000
vt 0.093750 0.500000
vt 0.093750 1.000000
vt 0.062500 0.500000
vt 0.419706 0.419706
vt 0.383337 0.449553
vt 0.080295 0.419706
vt 0.062500 1.000000
vt 0.031250 0.500000
vt 0.031250 1.000000
vt 0.000000 0.500000
vt 0.616663 0.449553
vt 0.658156 0.471731
vt 0.883337 0.449553
vt 0.781250 1.000000
vt 0.406250 1.000000
vt 0.341844 0.471731
vt 0.296822 0.485388
vt 0.158156 0.471731
vt 0.250000 0.490000
vt 0.203179 0.485389
vt 0.116663 0.449553
vt 0.050447 0.383337
vt 0.028269 0.341844
vt 0.449553 0.383337
vt 0.014612 0.296822
vt 0.485388 0.296822
vt 0.010000 0.250000
vt 0.490000 0.250000
vt 0.014611 0.203179
vt 0.485388 0.203178
vt 0.028269 0.158156
vt 0.471731 0.158156
vt 0.050447 0.116663
vt 0.080294 0.080294
vt 0.449553 0.116663
vt 0.116663 0.050447
vt 0.419706 0.080294
vt 0.158156 0.028269
vt 0.383337 0.050447
vt 0.203178 0.014612
vt 0.296822 0.014612
vt 0.250000 0.010000
vt 0.341844 0.028269
vt 0.471731 0.341844
vt 0.000000 1.000000
vt 0.703179 0.485389
vt 0.750000 0.490000
vt 0.796822 0.485388
vt 0.841844 0.471731
vt 0.919706 0.419706
vt 0.580295 0.419706
vt 0.949553 0.383337
vt 0.550447 0.383337
vt 0.971731 0.341844
vt 0.985388 0.296822
vt 0.528269 0.341844
vt 0.990000 0.250000
vt 0.510000 0.250000
vt 0.985388 0.203178
vt 0.514611 0.203179
vt 0.971731 0.158156
vt 0.949553 0.116663
vt 0.528269 0.158156
vt 0.919706 0.080294
vt 0.580294 0.080294
vt 0.883337 0.050447
vt 0.616663 0.050447
vt 0.841844 0.028269
vt 0.796822 0.014612
vt 0.658156 0.028269
vt 0.750000 0.010000
vt 0.703178 0.014612
vt 0.550447 0.116663
vt 0.514612 0.296822
vt 0.000000 0.000000
vt 0.000000 0.000000
vt 0.000000 0.000000
vt 0.000000 0.000000
vt 0.250000 0.010000
vt 0.000000 0.000000
vt 0.437500 1.000000
vt 0.468750 1.000000
vt 0.000000 0.000000
vt 0.000000 0.000000
vt 0.500000 1.000000
vt 0.468750 0.500000
vt 0.500000 0.500000
vt 0.437500 0.500000
vt 0.406250 0.500000
vt 0.406250 1.000000
vt 0.375000 0.500000
vt 0.375000 1.000000
vt 0.343750 0.500000
vt 0.343750 1.000000
vt 0.312500 0.500000
vt 0.312500 1.000000
vt 0.281250 0.500000
vt 0.281250 1.000000
vt 0.250000 0.500000
vt 0.250000 1.000000
vt 0.218750 0.500000
vt 0.218750 1.000000
vt 0.187500 0.500000
vt 0.187500 1.000000
vt 0.156250 0.500000
vt 0.156250 1.000000
vt 0.125000 0.500000
vt 0.125000 1.000000
vt 0.093750 0.500000
vt 0.093750 1.000000
vt 0.062500 0.500000
vt 0.062500 1.000000
vt 0.031250 0.500000
vt 0.000000 0.000000
vt 0.031250 1.000000
vt 0.000000 0.000000
vt 0.000000 0.000000
vt 0.000000 1.000000
vt 0.750000 0.010000
vn -1.0000 0.0000 0.0000
vn 0.0000 0.0000 -1.0000
vn 1.0000 0.0000 0.0000
vn 0.0000 0.0000 1.0000
vn 0.0000 -1.0000 0.0000
vn 0.0000 1.0000 0.0000
vn 0.0000 -0.0980 -0.9952
vn 0.0000 -0.2903 -0.9569
vn 0.0000 -0.4714 -0.8819
vn 0.0000 -0.6344 -0.7730
vn 0.0000 -0.7730 -0.6344
vn 0.0000 -0.8819 -0.4714
vn 0.0000 -0.9569 -0.2903
vn 0.0000 -0.9952 -0.0980
vn 0.0000 -0.9952 0.0980
vn 0.0000 -0.9569 0.2903
vn 0.0000 -0.8819 0.4714
vn 0.0000 -0.7730 0.6344
vn 0.0000 -0.6344 0.7730
vn 0.0000 -0.4714 0.8819
vn 0.0000 -0.2903 0.9569
vn 0.0000 -0.0980 0.9952
vn 0.0000 0.0980 0.9952
vn 0.0000 0.2903 0.9569
vn 0.0000 0.4714 0.8819
vn 0.0000 0.6344 0.7730
vn 0.0000 0.7730 0.6344
vn 0.0000 0.8819 0.4714
vn 0.0000 0.9569 0.2903
vn 0.0000 0.9952 0.0980
vn 0.0000 0.9952 -0.0980
vn 0.0000 0.9569 -0.2903
vn 0.0000 0.8819 -0.4714
vn 0.0000 0.7730 -0.6344
vn 0.0000 0.6344 -0.7730
vn 0.0000 0.4714 -0.8819
vn 0.0000 0.2903 -0.9569
vn 0.0000 0.0980 -0.9952
vn -1.0000 -0.0014 0.0017
vn -0.9999 -0.0038 0.0125
vn -1.0000 -0.0005 -0.0002
vn -1.0000 -0.0021 0.0039
vn -1.0000 -0.0005 0.0000
vn -1.0000 -0.0010 -0.0019
vn -1.0000 -0.0006 -0.0003
vn -1.0000 -0.0006 -0.0002
vn -1.0000 -0.0005 -0.0001
vn -1.0000 -0.0005 0.0001
vn -1.0000 -0.0006 0.0002
vn -1.0000 -0.0006 0.0003
vn -1.0000 -0.0011 0.0009
usemtl mat.238
s off
f 2/1/1 3/2/1 1/3/1
f 4/4/2 7/5/2 3/2/2
f 8/6/3 5/7/3 7/5/3
f 6/8/4 1/9/4 5/7/4
f 7/5/5 1/10/5 3/11/5
f 4/12/6 6/8/6 8/6/6
f 2/1/1 4/4/1 3/2/1
f 4/4/2 8/6/2 7/5/2
f 8/6/3 6/8/3 5/7/3
f 6/8/4 2/13/4 1/9/4
f 7/5/5 5/7/5 1/10/5
f 4/12/6 2/14/6 6/8/6
usemtl Material.234
f 48/15/7 49/16/7 47/17/7
f 50/18/8 51/19/8 49/16/8
f 52/20/9 53/21/9 51/19/9
f 54/22/10 55/23/10 53/21/10
f 56/24/11 57/25/11 55/23/11
f 58/26/12 59/27/12 57/25/12
f 60/28/13 61/29/13 59/27/13
f 61/29/14 64/30/14 63/31/14
f 64/30/15 65/32/15 63/31/15
f 66/33/16 67/34/16 65/32/16
f 68/35/17 69/36/17 67/34/17
f 70/37/18 71/38/18 69/36/18
f 72/39/19 73/40/19 71/38/19
f 74/41/20 75/42/20 73/40/20
f 76/43/21 77/44/21 75/42/21
f 78/45/22 79/46/22 77/44/22
f 80/47/23 81/48/23 79/46/23
f 82/49/24 83/50/24 81/48/24
f 84/51/25 85/52/25 83/50/25
f 85/52/26 88/53/26 87/54/26
f 88/53/27 89/55/27 87/54/27
f 90/56/28 91/57/28 89/55/28
f 92/58/29 93/59/29 91/57/29
f 94/60/30 95/61/30 93/59/30
f 96/62/31 97/63/31 95/61/31
f 98/64/32 99/65/32 97/63/32
f 100/66/33 101/67/33 99/65/33
f 102/68/34 103/69/34 101/67/34
f 104/70/35 105/71/35 103/69/35
f 106/72/36 107/73/36 105/71/36
f 56/74/3 54/75/3 104/76/3
f 108/77/37 109/78/37 107/73/37
f 110/79/38 47/80/38 109/78/38
f 105/81/1 107/82/1 53/83/1
f 48/15/7 50/18/7 49/16/7
f 50/18/8 52/20/8 51/19/8
f 52/20/9 54/22/9 53/21/9
f 54/22/10 56/24/10 55/23/10
f 56/24/11 58/26/11 57/25/11
f 58/26/12 60/28/12 59/27/12
f 60/28/13 62/84/13 61/29/13
f 61/29/14 62/84/14 64/30/14
f 64/30/15 66/33/15 65/32/15
f 66/33/16 68/35/16 67/34/16
f 68/35/17 70/37/17 69/36/17
f 70/37/18 72/39/18 71/38/18
f 72/39/19 74/41/19 73/40/19
f 74/41/20 76/43/20 75/42/20
f 76/43/21 78/45/21 77/44/21
f 78/45/22 80/47/22 79/46/22
f 80/47/23 82/49/23 81/48/23
f 82/49/24 84/51/24 83/50/24
f 84/51/25 86/85/25 85/52/25
f 85/52/26 86/85/26 88/53/26
f 88/53/27 90/56/27 89/55/27
f 90/56/28 92/58/28 91/57/28
f 92/58/29 94/60/29 93/59/29
f 94/60/30 96/62/30 95/61/30
f 96/62/31 98/64/31 97/63/31
f 98/64/32 100/66/32 99/65/32
f 100/66/33 102/68/33 101/67/33
f 102/68/34 104/70/34 103/69/34
f 104/70/35 106/72/35 105/71/35
f 106/72/36 108/77/36 107/73/36
f 52/86/3 50/87/3 108/88/3
f 50/87/3 48/89/3 110/90/3
f 108/88/3 50/87/3 110/90/3
f 108/88/3 106/91/3 52/86/3
f 106/91/3 104/76/3 54/75/3
f 52/86/3 106/91/3 54/75/3
f 104/76/3 102/92/3 56/74/3
f 102/92/3 100/93/3 58/94/3
f 56/74/3 102/92/3 58/94/3
f 100/93/3 98/95/3 62/96/3
f 98/95/3 96/97/3 64/98/3
f 96/97/3 94/99/3 66/100/3
f 94/99/3 92/101/3 68/102/3
f 92/101/3 90/103/3 68/102/3
f 90/103/3 88/104/3 70/105/3
f 68/102/3 90/103/3 70/105/3
f 88/104/3 86/106/3 72/107/3
f 86/106/3 84/108/3 74/109/3
f 72/107/3 86/106/3 74/109/3
f 84/108/3 82/110/3 78/111/3
f 82/110/3 80/112/3 78/111/3
f 78/111/3 76/113/3 84/108/3
f 76/113/3 74/109/3 84/108/3
f 72/107/3 70/105/3 88/104/3
f 68/102/3 66/100/3 94/99/3
f 66/100/3 64/98/3 96/97/3
f 64/98/3 62/96/3 98/95/3
f 62/96/3 60/114/3 100/93/3
f 60/114/3 58/94/3 100/93/3
f 108/77/37 110/79/37 109/78/37
f 110/79/38 48/115/38 47/80/38
f 109/116/1 47/117/1 49/118/1
f 49/118/1 51/119/1 109/116/1
f 51/119/1 53/83/1 107/82/1
f 109/116/1 51/119/1 107/82/1
f 53/83/1 55/120/1 103/121/1
f 55/120/1 57/122/1 101/123/1
f 57/122/1 59/124/1 101/123/1
f 59/124/1 61/125/1 99/126/1
f 101/123/1 59/124/1 99/126/1
f 61/125/1 63/127/1 95/128/1
f 63/127/1 65/129/1 93/130/1
f 65/129/1 67/131/1 93/130/1
f 67/131/1 69/132/1 91/133/1
f 93/130/1 67/131/1 91/133/1
f 69/132/1 71/134/1 87/135/1
f 71/134/1 73/136/1 85/137/1
f 73/136/1 75/138/1 85/137/1
f 75/138/1 77/139/1 83/140/1
f 85/137/1 75/138/1 83/140/1
f 77/139/1 79/141/1 81/142/1
f 81/142/1 83/140/1 77/139/1
f 85/137/1 87/135/1 71/134/1
f 87/135/1 89/143/1 69/132/1
f 89/143/1 91/133/1 69/132/1
f 93/130/1 95/128/1 63/127/1
f 95/128/1 97/144/1 61/125/1
f 97/144/1 99/126/1 61/125/1
f 101/123/1 103/121/1 55/120/1
f 103/121/1 105/81/1 53/83/1
usemtl Material.233
f 111/145/2 13/146/2 114/147/2
f 11/148/4 16/149/4 9/150/4
f 20/151/3 18/152/3 16/149/3
f 113/153/5 114/147/5 14/154/5
f 16/155/23 17/156/23 15/157/23
f 18/152/24 19/158/24 17/156/24
f 20/151/25 21/159/25 19/158/25
f 22/160/26 23/161/26 21/159/26
f 24/162/27 25/163/27 23/161/27
f 26/164/28 27/165/28 25/163/28
f 28/166/29 29/167/29 27/165/29
f 30/168/30 31/169/30 29/167/30
f 32/170/31 33/171/31 31/169/31
f 34/172/32 35/173/32 33/171/32
f 36/174/33 37/175/33 35/173/33
f 38/176/34 39/177/34 37/175/34
f 40/178/35 41/179/35 39/177/35
f 42/180/36 43/181/36 41/179/36
f 44/182/37 45/183/37 43/181/37
f 39/177/39 41/179/39 10/184/39
f 10/184/38 46/185/38 12/186/38
f 11/148/4 112/187/4 113/153/4
f 111/145/2 10/184/2 13/146/2
f 11/148/4 113/153/4 16/149/4
f 113/153/3 14/154/3 16/149/3
f 14/154/3 114/147/3 13/188/3
f 14/154/3 40/178/3 38/176/3
f 13/188/3 46/185/3 44/182/3
f 14/154/3 13/188/3 40/178/3
f 44/182/3 42/180/3 13/188/3
f 42/180/3 40/178/3 13/188/3
f 38/176/3 36/174/3 14/154/3
f 36/174/3 34/172/3 14/154/3
f 34/172/3 32/170/3 14/154/3
f 32/170/3 30/168/3 14/154/3
f 30/168/3 28/166/3 14/154/3
f 28/166/3 26/164/3 14/154/3
f 26/164/3 24/162/3 14/154/3
f 24/162/3 22/160/3 16/149/3
f 14/154/3 24/162/3 16/149/3
f 22/160/3 20/151/3 16/149/3
f 16/155/23 18/152/23 17/156/23
f 18/152/24 20/151/24 19/158/24
f 20/151/25 22/160/25 21/159/25
f 22/160/26 24/162/26 23/161/26
f 24/162/27 26/164/27 25/163/27
f 26/164/28 28/166/28 27/165/28
f 28/166/29 30/168/29 29/167/29
f 30/168/30 32/170/30 31/169/30
f 32/170/31 34/172/31 33/171/31
f 34/172/32 36/174/32 35/173/32
f 36/174/33 38/176/33 37/175/33
f 38/176/34 40/178/34 39/177/34
f 40/178/35 42/180/35 41/179/35
f 42/180/36 44/182/36 43/181/36
f 44/182/37 46/185/37 45/183/37
f 45/183/40 10/184/40 43/181/40
f 10/184/41 111/145/41 37/175/41
f 43/181/42 10/184/42 41/179/42
f 111/145/43 112/187/43 31/169/43
f 112/187/44 15/157/44 25/163/44
f 27/165/45 112/187/45 25/163/45
f 15/157/1 17/156/1 19/158/1
f 19/158/1 21/159/1 15/157/1
f 21/159/1 23/161/1 15/157/1
f 23/161/1 25/163/1 15/157/1
f 27/165/46 29/167/46 112/187/46
f 29/167/47 31/169/47 112/187/47
f 31/169/48 33/171/48 111/145/48
f 33/171/49 35/173/49 111/145/49
f 35/173/50 37/175/50 111/145/50
f 37/175/51 39/177/51 10/184/51
f 10/184/38 45/183/38 46/185/38
f 11/148/4 15/189/4 112/187/4
