# Blender v2.82 (sub 7) OBJ File: 'InitialFile.blend'
# www.blender.org
mtllib body_l_dist_springvround2.mtl
o body_l_dist_springvround2_Cube.177
v -0.016000 0.000000 0.005375
v -0.016000 0.010000 0.005375
v -0.016000 0.000000 -0.005375
v -0.016000 0.010000 -0.005375
v 0.016000 0.000000 0.005375
v 0.016000 0.010000 0.005375
v 0.016000 0.000000 -0.005375
v 0.016000 0.010000 -0.005375
v -0.016000 0.010000 0.010750
v -0.016000 0.063790 0.010750
v -0.016000 0.010000 -0.010750
v -0.016000 0.063790 -0.010750
v 0.016000 0.010000 0.010750
v 0.016000 0.063790 0.010750
v 0.016000 0.010000 -0.010750
v 0.016000 0.063790 -0.010750
v -0.016000 0.063790 0.010750
v 0.016000 0.063790 0.010750
v -0.016000 0.063790 -0.010750
v -0.016000 0.065653 0.010543
v 0.016000 0.065653 0.010543
v -0.016000 0.067445 0.009932
v -0.016000 0.069096 0.008938
v -0.016000 0.070543 0.007601
v -0.016000 0.071731 0.005972
v -0.016000 0.072613 0.004114
v -0.016000 0.073156 0.002097
v -0.016000 0.073340 -0.000000
v 0.016000 0.073340 -0.000000
v -0.016000 0.073156 -0.002097
v 0.016000 0.073156 -0.002097
v -0.016000 0.072613 -0.004114
v -0.016000 0.071731 -0.005972
v -0.016000 0.070543 -0.007601
v -0.016000 0.069096 -0.008938
v 0.016000 0.069096 -0.008938
v -0.016000 0.067445 -0.009932
v -0.016000 0.065653 -0.010543
v 0.016000 0.063790 -0.010750
v 0.016000 0.067445 0.009932
v 0.016000 0.065653 -0.010543
v 0.016000 0.067445 -0.009932
v 0.016000 0.070543 -0.007601
v 0.016000 0.071731 -0.005972
v 0.016000 0.072613 -0.004114
v 0.016000 0.073156 0.002097
v 0.016000 0.072613 0.004114
v 0.016000 0.071731 0.005972
v 0.016000 0.070543 0.007601
v 0.016000 0.069096 0.008938
vt 0.625000 0.000000
vt 0.375000 0.250000
vt 0.375000 0.000000
vt 0.625000 0.250000
vt 0.375000 0.500000
vt 0.625000 0.500000
vt 0.375000 0.750000
vt 0.625000 0.750000
vt 0.375000 1.000000
vt 0.125000 0.750000
vt 0.125000 0.500000
vt 0.625000 0.000000
vt 0.375000 0.250000
vt 0.375000 0.000000
vt 0.625000 0.250000
vt 0.375000 0.500000
vt 0.625000 0.500000
vt 0.375000 0.750000
vt 0.625000 0.750000
vt 0.375000 1.000000
vt 0.125000 0.750000
vt 0.125000 0.500000
vt 0.875000 0.500000
vt 0.000000 0.500000
vt 0.500000 0.500000
vt 0.250000 0.500000
vt 0.500000 1.000000
vt 0.468750 0.500000
vt 0.468750 1.000000
vt 0.437500 0.500000
vt 0.437500 1.000000
vt 0.406250 0.500000
vt 0.406250 1.000000
vt 0.375000 0.500000
vt 0.375000 1.000000
vt 0.343750 0.500000
vt 0.343750 1.000000
vt 0.312500 0.500000
vt 0.312500 1.000000
vt 0.281250 0.500000
vt 0.281250 1.000000
vt 0.250000 1.000000
vt 0.218750 0.500000
vt 0.218750 1.000000
vt 0.187500 0.500000
vt 0.187500 1.000000
vt 0.156250 0.500000
vt 0.156250 1.000000
vt 0.125000 0.500000
vt 0.125000 1.000000
vt 0.093750 0.500000
vt 0.093750 1.000000
vt 0.062500 0.500000
vt 0.062500 1.000000
vt 0.031250 0.500000
vt 0.031250 1.000000
vt 0.000000 1.000000
vt 0.625000 1.000000
vt 0.625000 1.000000
vt 0.875000 0.750000
vn -1.0000 0.0000 0.0000
vn 0.0000 0.0000 -1.0000
vn 1.0000 0.0000 0.0000
vn 0.0000 0.0000 1.0000
vn 0.0000 -1.0000 0.0000
vn 0.0000 1.0000 0.0000
vn 0.0000 0.1102 0.9939
vn 0.0000 0.3231 0.9463
vn 0.0000 0.5156 0.8569
vn 0.0000 0.6786 0.7345
vn 0.0000 0.8080 0.5891
vn 0.0000 0.9033 0.4289
vn 0.0000 0.9656 0.2602
vn 0.0000 0.9962 0.0872
vn 0.0000 0.9962 -0.0872
vn 0.0000 0.9656 -0.2602
vn 0.0000 0.9033 -0.4289
vn 0.0000 0.8080 -0.5891
vn 0.0000 0.6786 -0.7345
vn 0.0000 0.5156 -0.8569
vn 0.0000 0.3231 -0.9464
vn 0.0000 0.1102 -0.9939
vn 0.0000 0.3231 0.9464
vn 0.0000 0.5155 0.8569
vn 0.0000 0.5155 -0.8569
usemtl mat.062
s off
f 2/1/1 3/2/1 1/3/1
f 4/4/2 7/5/2 3/2/2
f 8/6/3 5/7/3 7/5/3
f 6/8/4 1/9/4 5/7/4
f 7/5/5 1/10/5 3/11/5
f 10/12/1 11/13/1 9/14/1
f 12/15/2 15/16/2 11/13/2
f 16/17/3 13/18/3 15/16/3
f 14/19/4 9/20/4 13/18/4
f 15/16/5 9/21/5 11/22/5
f 12/23/6 14/19/6 16/17/6
f 19/24/1 17/25/1 28/26/1
f 18/27/7 20/28/7 17/25/7
f 21/29/8 22/30/8 20/28/8
f 40/31/9 23/32/9 22/30/9
f 50/33/10 24/34/10 23/32/10
f 49/35/11 25/36/11 24/34/11
f 48/37/12 26/38/12 25/36/12
f 47/39/13 27/40/13 26/38/13
f 46/41/14 28/26/14 27/40/14
f 29/42/15 30/43/15 28/26/15
f 31/44/16 32/45/16 30/43/16
f 45/46/17 33/47/17 32/45/17
f 44/48/18 34/49/18 33/47/18
f 43/50/19 35/51/19 34/49/19
f 36/52/20 37/53/20 35/51/20
f 42/54/21 38/55/21 37/53/21
f 41/56/22 19/24/22 38/55/22
f 44/48/3 45/46/3 39/57/3
f 2/1/1 4/4/1 3/2/1
f 4/4/2 8/6/2 7/5/2
f 8/6/3 6/8/3 5/7/3
f 6/8/4 2/58/4 1/9/4
f 7/5/5 5/7/5 1/10/5
f 10/12/1 12/15/1 11/13/1
f 12/15/2 16/17/2 15/16/2
f 16/17/3 14/19/3 13/18/3
f 14/19/4 10/59/4 9/20/4
f 15/16/5 13/18/5 9/21/5
f 12/23/6 10/60/6 14/19/6
f 17/25/1 20/28/1 22/30/1
f 22/30/1 23/32/1 17/25/1
f 23/32/1 24/34/1 17/25/1
f 24/34/1 25/36/1 17/25/1
f 25/36/1 26/38/1 17/25/1
f 26/38/1 27/40/1 17/25/1
f 27/40/1 28/26/1 17/25/1
f 28/26/1 30/43/1 19/24/1
f 30/43/1 32/45/1 19/24/1
f 32/45/1 33/47/1 19/24/1
f 33/47/1 34/49/1 19/24/1
f 34/49/1 35/51/1 19/24/1
f 35/51/1 37/53/1 19/24/1
f 37/53/1 38/55/1 19/24/1
f 18/27/7 21/29/7 20/28/7
f 21/29/23 40/31/23 22/30/23
f 40/31/24 50/33/24 23/32/24
f 50/33/10 49/35/10 24/34/10
f 49/35/11 48/37/11 25/36/11
f 48/37/12 47/39/12 26/38/12
f 47/39/13 46/41/13 27/40/13
f 46/41/14 29/42/14 28/26/14
f 29/42/15 31/44/15 30/43/15
f 31/44/16 45/46/16 32/45/16
f 45/46/17 44/48/17 33/47/17
f 44/48/18 43/50/18 34/49/18
f 43/50/19 36/52/19 35/51/19
f 36/52/25 42/54/25 37/53/25
f 42/54/21 41/56/21 38/55/21
f 41/56/22 39/57/22 19/24/22
f 45/46/3 31/44/3 39/57/3
f 31/44/3 29/42/3 39/57/3
f 29/42/3 46/41/3 18/27/3
f 46/41/3 47/39/3 18/27/3
f 47/39/3 48/37/3 18/27/3
f 48/37/3 49/35/3 18/27/3
f 49/35/3 50/33/3 18/27/3
f 50/33/3 40/31/3 18/27/3
f 40/31/3 21/29/3 18/27/3
f 18/27/3 39/57/3 29/42/3
f 39/57/3 41/56/3 42/54/3
f 42/54/3 36/52/3 39/57/3
f 36/52/3 43/50/3 39/57/3
f 43/50/3 44/48/3 39/57/3
