# Blender v2.82 (sub 7) OBJ File: 'InitialFile.blend'
# www.blender.org
mtllib body_l_prox_pinvspring2_collision.mtl
o body_l_prox_pinvspring2_collision_Cube.212
v -0.016000 0.010000 0.010750
v -0.016000 0.054240 0.010750
v -0.016000 0.010000 -0.010750
v -0.016000 0.054240 -0.010750
v 0.016000 0.010000 0.010750
v 0.016000 0.054240 0.010750
v 0.016000 0.010000 -0.010750
v 0.016000 0.054240 -0.010750
v -0.016000 0.063790 0.010750
v -0.016000 0.063790 -0.010750
v 0.016000 0.063790 0.010750
v 0.016000 0.063790 -0.010750
v 0.016008 0.063790 -0.010750
v -0.016008 0.063790 0.010750
v 0.016008 0.063790 0.010750
v -0.016008 0.065653 0.010543
v 0.016008 0.065653 0.010543
v -0.016008 0.067445 0.009932
v 0.016008 0.067445 0.009932
v -0.016008 0.069096 0.008938
v 0.016008 0.069096 0.008938
v -0.016008 0.070543 0.007601
v 0.016008 0.070543 0.007601
v -0.016008 0.071731 0.005972
v 0.016008 0.071731 0.005972
v -0.016008 0.072613 0.004114
v 0.016008 0.072613 0.004114
v -0.016008 0.073156 0.002097
v 0.016008 0.073156 0.002097
v -0.016008 0.073340 -0.000000
v 0.016008 0.073340 -0.000000
v -0.016008 0.073156 -0.002097
v 0.016008 0.073156 -0.002097
v -0.016008 0.072613 -0.004114
v 0.016008 0.072613 -0.004114
v -0.016008 0.071731 -0.005972
v 0.016008 0.071731 -0.005972
v -0.016008 0.070543 -0.007601
v 0.016008 0.070543 -0.007601
v -0.016008 0.069096 -0.008938
v 0.016008 0.069096 -0.008938
v -0.016008 0.067445 -0.009932
v 0.016008 0.067445 -0.009932
v -0.016008 0.065653 -0.010543
v 0.016008 0.065653 -0.010543
v -0.015992 0.054240 -0.010750
v -0.015992 0.054240 0.010750
v 0.016008 0.054240 0.010750
v 0.016008 0.054240 -0.010750
v 0.016000 0.063790 -0.002687
v 0.017600 0.063790 -0.002687
v 0.016000 0.063324 -0.002636
v 0.017600 0.063324 -0.002636
v 0.016000 0.062876 -0.002483
v 0.017600 0.062876 -0.002483
v 0.016000 0.062464 -0.002235
v 0.017600 0.062464 -0.002235
v 0.016000 0.062102 -0.001900
v 0.017600 0.062102 -0.001900
v 0.016000 0.061805 -0.001493
v 0.017600 0.061805 -0.001493
v 0.016000 0.061584 -0.001028
v 0.017600 0.061584 -0.001028
v 0.016000 0.061448 -0.000524
v 0.017600 0.061448 -0.000524
v 0.016000 0.061402 -0.000000
v 0.017600 0.061402 -0.000000
v 0.016000 0.061448 0.000524
v 0.017600 0.061448 0.000524
v 0.016000 0.061584 0.001028
v 0.017600 0.061584 0.001028
v 0.016000 0.061805 0.001493
v 0.017600 0.061805 0.001493
v 0.016000 0.062102 0.001900
v 0.017600 0.062102 0.001900
v 0.016000 0.062464 0.002235
v 0.017600 0.062464 0.002235
v 0.016000 0.062876 0.002483
v 0.017600 0.062876 0.002483
v 0.016000 0.063324 0.002636
v 0.017600 0.063324 0.002636
v 0.016000 0.063790 0.002687
v 0.017600 0.063790 0.002687
v 0.016000 0.064256 0.002636
v 0.017600 0.064256 0.002636
v 0.016000 0.064704 0.002483
v 0.017600 0.064704 0.002483
v 0.016000 0.065116 0.002235
v 0.017600 0.065116 0.002235
v 0.016000 0.065478 0.001900
v 0.017600 0.065478 0.001900
v 0.016000 0.065775 0.001493
v 0.017600 0.065775 0.001493
v 0.016000 0.065996 0.001028
v 0.017600 0.065996 0.001028
v 0.016000 0.066132 0.000524
v 0.017600 0.066132 0.000524
v 0.016000 0.066177 -0.000000
v 0.017600 0.066177 -0.000000
v 0.016000 0.066132 -0.000524
v 0.017600 0.066132 -0.000524
v 0.016000 0.065996 -0.001028
v 0.017600 0.065996 -0.001028
v 0.016000 0.065775 -0.001493
v 0.017600 0.065775 -0.001493
v 0.016000 0.065478 -0.001900
v 0.017600 0.065478 -0.001900
v 0.016000 0.065116 -0.002235
v 0.017600 0.065116 -0.002235
v 0.016000 0.064704 -0.002483
v 0.017600 0.064704 -0.002483
v 0.016000 0.064256 -0.002636
v 0.017600 0.064256 -0.002636
v -0.017600 0.063790 -0.002687
v -0.016000 0.063790 -0.002687
v -0.017600 0.063324 -0.002636
v -0.016000 0.063324 -0.002636
v -0.017600 0.062876 -0.002483
v -0.016000 0.062876 -0.002483
v -0.017600 0.062464 -0.002235
v -0.016000 0.062464 -0.002235
v -0.017600 0.062102 -0.001900
v -0.016000 0.062102 -0.001900
v -0.017600 0.061805 -0.001493
v -0.016000 0.061805 -0.001493
v -0.017600 0.061584 -0.001028
v -0.016000 0.061584 -0.001028
v -0.017600 0.061448 -0.000524
v -0.016000 0.061448 -0.000524
v -0.017600 0.061402 -0.000000
v -0.016000 0.061402 -0.000000
v -0.017600 0.061448 0.000524
v -0.016000 0.061448 0.000524
v -0.017600 0.061584 0.001028
v -0.016000 0.061584 0.001028
v -0.017600 0.061805 0.001493
v -0.016000 0.061805 0.001493
v -0.017600 0.062102 0.001900
v -0.016000 0.062102 0.001900
v -0.017600 0.062464 0.002235
v -0.016000 0.062464 0.002235
v -0.017600 0.062876 0.002483
v -0.016000 0.062876 0.002483
v -0.017600 0.063324 0.002636
v -0.016000 0.063324 0.002636
v -0.017600 0.063790 0.002687
v -0.016000 0.063790 0.002687
v -0.017600 0.064256 0.002636
v -0.016000 0.064256 0.002636
v -0.017600 0.064704 0.002483
v -0.016000 0.064704 0.002483
v -0.017600 0.065116 0.002235
v -0.016000 0.065116 0.002235
v -0.017600 0.065478 0.001900
v -0.016000 0.065478 0.001900
v -0.017600 0.065775 0.001493
v -0.016000 0.065775 0.001493
v -0.017600 0.065996 0.001028
v -0.016000 0.065996 0.001028
v -0.017600 0.066132 0.000524
v -0.016000 0.066132 0.000524
v -0.017600 0.066177 -0.000000
v -0.016000 0.066177 -0.000000
v -0.017600 0.066132 -0.000524
v -0.016000 0.066132 -0.000524
v -0.017600 0.065996 -0.001028
v -0.016000 0.065996 -0.001028
v -0.017600 0.065775 -0.001493
v -0.016000 0.065775 -0.001493
v -0.017600 0.065478 -0.001900
v -0.016000 0.065478 -0.001900
v -0.017600 0.065116 -0.002235
v -0.016000 0.065116 -0.002235
v -0.017600 0.064704 -0.002483
v -0.016000 0.064704 -0.002483
v -0.017600 0.064256 -0.002636
v -0.016000 0.064256 -0.002636
vt 0.625000 0.000000
vt 0.375000 0.250000
vt 0.375000 0.000000
vt 0.625000 0.250000
vt 0.375000 0.500000
vt 0.625000 0.500000
vt 0.375000 0.750000
vt 0.625000 0.750000
vt 0.375000 1.000000
vt 0.125000 0.750000
vt 0.125000 0.500000
vt 0.875000 0.500000
vt 0.625000 1.000000
vt 0.875000 0.750000
vt 0.329159 0.681784
vt 0.534928 0.984764
vt 0.329160 0.984764
vt 0.463418 0.651323
vt 0.463418 0.651399
vt 0.463418 0.348343
vt 0.080924 0.392797
vt 0.112136 0.373957
vt 0.226567 0.348427
vt 0.835453 0.651399
vt 0.795117 0.348268
vt 0.835453 0.348268
vt 0.795117 0.651399
vt 0.755911 0.348268
vt 0.755911 0.651399
vt 0.719341 0.348268
vt 0.719341 0.651399
vt 0.686813 0.348268
vt 0.014494 0.681712
vt 0.043045 0.984843
vt 0.014494 0.984843
vt 0.043045 0.681712
vt 0.076617 0.984843
vt 0.076617 0.681712
vt 0.113921 0.984843
vt 0.113921 0.681712
vt 0.153522 0.984843
vt 0.153522 0.681712
vt 0.193900 0.984843
vt 0.193900 0.681712
vt 0.233501 0.984843
vt 0.233501 0.681712
vt 0.270804 0.984843
vt 0.270804 0.681712
vt 0.304377 0.984843
vt 0.850027 0.348268
vt 0.880075 0.651399
vt 0.850027 0.651399
vt 0.880075 0.348268
vt 0.914808 0.651399
vt 0.914808 0.348268
vt 0.952890 0.651399
vt 0.992858 0.651323
vt 0.952890 0.348268
vt 0.992858 0.348343
vt 0.669097 0.348419
vt 0.669097 0.651399
vt 0.474760 0.253633
vt 0.454163 0.261046
vt 0.454163 0.253633
vt 0.474760 0.261046
vt 0.454163 0.268239
vt 0.474760 0.268239
vt 0.454163 0.274935
vt 0.474760 0.274935
vt 0.454163 0.280877
vt 0.499477 0.221803
vt 0.520074 0.216554
vt 0.520074 0.221803
vt 0.499477 0.216554
vt 0.520074 0.210381
vt 0.499477 0.210381
vt 0.520074 0.203521
vt 0.499477 0.203521
vt 0.520074 0.196240
vt 0.499477 0.196240
vt 0.520074 0.188815
vt 0.499477 0.188815
vt 0.520074 0.181534
vt 0.499477 0.181534
vt 0.520074 0.174675
vt 0.499477 0.174675
vt 0.520074 0.168502
vt 0.476820 0.280828
vt 0.497417 0.275347
vt 0.497417 0.280828
vt 0.476820 0.275347
vt 0.497417 0.268994
vt 0.476820 0.268994
vt 0.497417 0.262014
vt 0.476820 0.262014
vt 0.497417 0.254674
vt 0.476820 0.254674
vt 0.497417 0.247258
vt 0.476820 0.247258
vt 0.497417 0.240049
vt 0.476820 0.240049
vt 0.497417 0.233324
vt 0.476820 0.233324
vt 0.497417 0.227343
vt 0.542731 0.227334
vt 0.522134 0.232584
vt 0.522134 0.227334
vt 0.542730 0.232584
vt 0.522134 0.238757
vt 0.542731 0.238757
vt 0.522134 0.245616
vt 0.542731 0.245616
vt 0.522134 0.252898
vt 0.542731 0.252898
vt 0.522134 0.260322
vt 0.542730 0.260322
vt 0.522134 0.267604
vt 0.542731 0.267604
vt 0.522134 0.274463
vt 0.542731 0.274463
vt 0.522134 0.280636
vt 0.474760 0.227370
vt 0.454163 0.232895
vt 0.454163 0.227370
vt 0.474760 0.232895
vt 0.454163 0.239282
vt 0.469698 0.017433
vt 0.476836 0.012183
vt 0.542169 0.012183
vt 0.474760 0.239282
vt 0.454163 0.246284
vt 0.474760 0.246284
vt 0.474760 0.194775
vt 0.454163 0.202188
vt 0.454163 0.194775
vt 0.474760 0.202188
vt 0.454163 0.209381
vt 0.474760 0.209381
vt 0.454163 0.216077
vt 0.474760 0.216077
vt 0.454163 0.222019
vt 0.522134 0.221803
vt 0.542731 0.216554
vt 0.542731 0.221803
vt 0.522134 0.216554
vt 0.542731 0.210381
vt 0.522134 0.210381
vt 0.542731 0.203521
vt 0.522134 0.203521
vt 0.542731 0.196240
vt 0.522134 0.196240
vt 0.542731 0.188815
vt 0.522134 0.188815
vt 0.542731 0.181534
vt 0.522134 0.181534
vt 0.542731 0.174675
vt 0.522134 0.174675
vt 0.542731 0.168502
vt 0.476820 0.221995
vt 0.497417 0.216514
vt 0.497417 0.221995
vt 0.476820 0.216514
vt 0.497417 0.210161
vt 0.476820 0.210161
vt 0.497417 0.203181
vt 0.476820 0.203181
vt 0.497417 0.195842
vt 0.476820 0.195842
vt 0.497417 0.188425
vt 0.476820 0.188425
vt 0.497417 0.181216
vt 0.476820 0.181216
vt 0.497417 0.174492
vt 0.476820 0.174492
vt 0.497417 0.168511
vt 0.520074 0.227334
vt 0.499477 0.232584
vt 0.499477 0.227334
vt 0.520074 0.232584
vt 0.499477 0.238757
vt 0.520074 0.238757
vt 0.499477 0.245616
vt 0.520074 0.245616
vt 0.499477 0.252898
vt 0.520074 0.252898
vt 0.499477 0.260322
vt 0.520074 0.260322
vt 0.499477 0.267604
vt 0.520074 0.267604
vt 0.499477 0.274463
vt 0.520074 0.274463
vt 0.499477 0.280636
vt 0.474760 0.168512
vt 0.454163 0.174037
vt 0.454163 0.168512
vt 0.474760 0.174037
vt 0.454163 0.180423
vt 0.474760 0.180423
vt 0.454163 0.187426
vt 0.474760 0.187426
vt 0.476836 0.095102
vt 0.485229 0.090977
vt 0.533776 0.090977
vt 0.226567 0.015149
vt 0.432537 0.015149
vt 0.080924 0.059519
vt 0.534928 0.681708
vt 0.186384 0.351338
vt 0.147746 0.359958
vt 0.432537 0.348427
vt 0.432537 0.651407
vt 0.020597 0.499916
vt 0.226567 0.651407
vt 0.080924 0.607036
vt 0.036275 0.557889
vt 0.055309 0.584080
vt 0.186384 0.648496
vt 0.147745 0.639875
vt 0.112136 0.625876
vt 0.024555 0.529471
vt 0.024555 0.470362
vt 0.036276 0.441944
vt 0.055309 0.415753
vt 0.686813 0.651399
vt 0.304377 0.681712
vt 0.463418 0.348268
vt 0.474760 0.280877
vt 0.499477 0.168502
vt 0.476820 0.227343
vt 0.542731 0.280636
vt 0.485229 0.008059
vt 0.494555 0.005217
vt 0.524450 0.005217
vt 0.504455 0.003769
vt 0.514550 0.003769
vt 0.533776 0.008059
vt 0.549307 0.017433
vt 0.554915 0.023606
vt 0.464090 0.023606
vt 0.558778 0.030465
vt 0.458258 0.037747
vt 0.560747 0.037747
vt 0.458258 0.045171
vt 0.560747 0.045171
vt 0.460227 0.052453
vt 0.558778 0.052453
vt 0.464090 0.059312
vt 0.554915 0.059312
vt 0.549307 0.065485
vt 0.469698 0.065485
vt 0.542169 0.070735
vt 0.476836 0.070735
vt 0.533776 0.074860
vt 0.485229 0.074860
vt 0.524450 0.077701
vt 0.494555 0.077701
vt 0.514550 0.079149
vt 0.504455 0.079149
vt 0.460227 0.030465
vt 0.474760 0.222019
vt 0.522134 0.168502
vt 0.476820 0.168511
vt 0.520074 0.280636
vt 0.494555 0.088136
vt 0.504455 0.086687
vt 0.514550 0.086687
vt 0.524450 0.088136
vt 0.542169 0.095102
vt 0.469698 0.100351
vt 0.549307 0.100351
vt 0.464090 0.106524
vt 0.554915 0.106524
vt 0.558778 0.113384
vt 0.460227 0.113384
vt 0.560747 0.120665
vt 0.458258 0.128089
vt 0.560747 0.128090
vt 0.460227 0.135371
vt 0.558778 0.135371
vt 0.554915 0.142230
vt 0.464090 0.142230
vt 0.549307 0.148403
vt 0.476836 0.153653
vt 0.542169 0.153653
vt 0.485229 0.157778
vt 0.533776 0.157778
vt 0.524450 0.160619
vt 0.494555 0.160619
vt 0.514550 0.162067
vt 0.504455 0.162067
vt 0.469698 0.148403
vt 0.458258 0.120665
vt 0.432537 0.318129
vt 0.020597 0.166639
vt 0.226567 0.318129
vt 0.080924 0.273759
vt 0.024555 0.196193
vt 0.186384 0.315218
vt 0.147746 0.306597
vt 0.112136 0.292598
vt 0.055309 0.250802
vt 0.036276 0.224612
vt 0.024555 0.137085
vt 0.036275 0.108666
vt 0.055309 0.082476
vt 0.112136 0.040680
vt 0.147746 0.026680
vt 0.186384 0.018060
vn -1.0000 0.0000 0.0000
vn 0.0000 0.0000 -1.0000
vn 1.0000 0.0000 0.0000
vn 0.0000 0.0000 1.0000
vn 0.0000 -1.0000 0.0000
vn 0.0000 1.0000 0.0000
vn -1.0000 -0.0024 0.0026
vn 0.0000 0.1102 0.9939
vn 0.0000 0.3231 0.9463
vn 0.0000 0.5155 0.8569
vn 0.0000 0.6786 0.7345
vn 0.0000 0.8080 0.5891
vn 0.0000 0.9033 0.4289
vn 0.0000 0.9656 0.2602
vn 0.0000 0.9962 0.0872
vn 0.0000 0.9962 -0.0872
vn 0.0000 0.9656 -0.2602
vn 0.0000 0.9033 -0.4289
vn 0.0000 0.8080 -0.5891
vn 0.0000 0.6786 -0.7345
vn 0.0000 0.5156 -0.8569
vn 0.0000 0.3231 -0.9463
vn 0.0000 0.1102 -0.9939
vn 0.0000 -0.1102 -0.9939
vn 0.0000 -0.3231 -0.9464
vn 0.0000 -0.5156 -0.8569
vn 0.0000 -0.6786 -0.7345
vn 0.0000 -0.8080 -0.5891
vn 0.0000 -0.9033 -0.4289
vn 0.0000 -0.9656 -0.2602
vn -0.0000 -0.9962 -0.0872
vn 0.0000 -0.9962 0.0872
vn 0.0000 -0.9656 0.2602
vn 0.0000 -0.9033 0.4290
vn 0.0000 -0.8080 0.5891
vn 0.0000 -0.6786 0.7345
vn 0.0000 -0.5156 0.8569
vn 0.0000 -0.3231 0.9464
vn 0.0000 -0.1102 0.9939
vn 0.0000 0.3232 0.9463
vn 0.0000 0.9962 0.0871
vn 0.0000 0.3231 -0.9464
vn -0.9998 -0.0064 0.0186
vn -1.0000 -0.0008 -0.0007
vn -1.0000 -0.0035 0.0058
vn -1.0000 -0.0008 0.0000
vn -1.0000 -0.0017 -0.0036
vn -1.0000 -0.0011 -0.0005
vn -1.0000 -0.0011 -0.0008
vn -1.0000 -0.0010 -0.0003
vn -1.0000 -0.0009 -0.0001
vn -1.0000 -0.0009 0.0001
vn -1.0000 -0.0010 0.0003
vn -1.0000 -0.0011 0.0005
vn -1.0000 -0.0011 0.0008
vn 0.0000 0.5156 0.8569
vn 0.0000 0.5155 -0.8569
vn 0.0000 -0.9033 -0.4290
vn 0.0000 -0.9033 0.4289
vn 0.0000 0.3231 0.9464
vn 0.0000 0.9962 -0.0871
vn 0.0000 0.9033 -0.4290
usemtl mat.073
s off
f 2/1/1 3/2/1 1/3/1
f 4/4/2 7/5/2 3/2/2
f 8/6/3 5/7/3 7/5/3
f 6/8/4 1/9/4 5/7/4
f 7/5/5 1/10/5 3/11/5
f 4/12/6 6/8/6 8/6/6
f 2/1/1 4/4/1 3/2/1
f 4/4/2 8/6/2 7/5/2
f 8/6/3 6/8/3 5/7/3
f 6/8/4 2/13/4 1/9/4
f 7/5/5 5/7/5 1/10/5
f 4/12/6 2/14/6 6/8/6
usemtl Material.042
f 46/15/2 13/16/2 49/17/2
f 11/18/4 15/19/4 9/20/4
f 38/21/7 40/22/7 10/23/7
f 15/24/8 16/25/8 14/26/8
f 17/27/9 18/28/9 16/25/9
f 19/29/10 20/30/10 18/28/10
f 21/31/11 22/32/11 20/30/11
f 23/33/12 24/34/12 22/35/12
f 25/36/13 26/37/13 24/34/13
f 27/38/14 28/39/14 26/37/14
f 29/40/15 30/41/15 28/39/15
f 31/42/16 32/43/16 30/41/16
f 33/44/17 34/45/17 32/43/17
f 35/46/18 36/47/18 34/45/18
f 37/48/19 38/49/19 36/47/19
f 39/50/20 40/51/20 38/52/20
f 41/53/21 42/54/21 40/51/21
f 43/55/22 44/56/22 42/54/22
f 10/57/23 45/58/23 12/59/23
f 11/18/4 47/60/4 48/61/4
f 51/62/24 52/63/24 50/64/24
f 53/65/25 54/66/25 52/63/25
f 55/67/26 56/68/26 54/66/26
f 57/69/27 58/70/27 56/68/27
f 59/71/28 60/72/28 58/73/28
f 61/74/29 62/75/29 60/72/29
f 63/76/30 64/77/30 62/75/30
f 65/78/31 66/79/31 64/77/31
f 67/80/32 68/81/32 66/79/32
f 69/82/33 70/83/33 68/81/33
f 71/84/34 72/85/34 70/83/34
f 73/86/35 74/87/35 72/85/35
f 75/88/36 76/89/36 74/90/36
f 77/91/37 78/92/37 76/89/37
f 79/93/38 80/94/38 78/92/38
f 81/95/39 82/96/39 80/94/39
f 83/97/8 84/98/8 82/96/8
f 85/99/40 86/100/40 84/98/40
f 87/101/10 88/102/10 86/100/10
f 89/103/11 90/104/11 88/102/11
f 91/105/12 92/106/12 90/107/12
f 93/108/13 94/109/13 92/106/13
f 95/110/14 96/111/14 94/109/14
f 97/112/41 98/113/41 96/111/41
f 99/114/16 100/115/16 98/113/16
f 101/116/17 102/117/17 100/115/17
f 103/118/18 104/119/18 102/117/18
f 105/120/19 106/121/19 104/119/19
f 107/122/20 108/123/20 106/124/20
f 109/125/21 110/126/21 108/123/21
f 59/127/3 57/128/3 107/129/3
f 111/130/42 112/131/42 110/126/42
f 113/132/23 50/64/23 112/131/23
f 115/133/24 116/134/24 114/135/24
f 117/136/25 118/137/25 116/134/25
f 119/138/26 120/139/26 118/137/26
f 121/140/27 122/141/27 120/139/27
f 123/142/28 124/143/28 122/144/28
f 125/145/29 126/146/29 124/143/29
f 127/147/30 128/148/30 126/146/30
f 129/149/31 130/150/31 128/148/31
f 131/151/32 132/152/32 130/150/32
f 133/153/33 134/154/33 132/152/33
f 135/155/34 136/156/34 134/154/34
f 137/157/35 138/158/35 136/156/35
f 139/159/36 140/160/36 138/161/36
f 141/162/37 142/163/37 140/160/37
f 143/164/38 144/165/38 142/163/38
f 145/166/39 146/167/39 144/165/39
f 147/168/8 148/169/8 146/167/8
f 149/170/40 150/171/40 148/169/40
f 151/172/10 152/173/10 150/171/10
f 153/174/11 154/175/11 152/173/11
f 155/176/12 156/177/12 154/178/12
f 157/179/13 158/180/13 156/177/13
f 159/181/14 160/182/14 158/180/14
f 161/183/41 162/184/41 160/182/41
f 163/185/16 164/186/16 162/184/16
f 165/187/17 166/188/17 164/186/17
f 167/189/18 168/190/18 166/188/18
f 169/191/19 170/192/19 168/190/19
f 171/193/20 172/194/20 170/195/20
f 173/196/21 174/197/21 172/194/21
f 175/198/42 176/199/42 174/197/42
f 177/200/23 114/135/23 176/199/23
f 172/201/1 174/202/1 120/203/1
f 15/204/3 48/205/3 23/206/3
f 46/15/2 10/207/2 13/16/2
f 11/18/4 48/61/4 15/19/4
f 44/208/43 10/23/43 42/209/43
f 10/23/44 46/210/44 38/21/44
f 42/209/45 10/23/45 40/22/45
f 46/210/46 47/211/46 30/212/46
f 47/211/47 14/213/47 22/214/47
f 26/215/48 47/211/48 24/216/48
f 14/213/1 16/217/1 18/218/1
f 18/218/1 20/219/1 14/213/1
f 20/219/1 22/214/1 14/213/1
f 22/214/49 24/216/49 47/211/49
f 26/215/50 28/220/50 47/211/50
f 28/220/51 30/212/51 47/211/51
f 30/212/52 32/221/52 46/210/52
f 32/221/53 34/222/53 46/210/53
f 34/222/54 36/223/54 46/210/54
f 36/223/55 38/21/55 46/210/55
f 15/24/8 17/27/8 16/25/8
f 17/27/9 19/29/9 18/28/9
f 19/29/56 21/31/56 20/30/56
f 21/31/11 23/224/11 22/32/11
f 23/33/12 25/36/12 24/34/12
f 25/36/13 27/38/13 26/37/13
f 27/38/14 29/40/14 28/39/14
f 29/40/15 31/42/15 30/41/15
f 31/42/16 33/44/16 32/43/16
f 33/44/17 35/46/17 34/45/17
f 35/46/18 37/48/18 36/47/18
f 37/48/19 39/225/19 38/49/19
f 39/50/20 41/53/20 40/51/20
f 41/53/57 43/55/57 42/54/57
f 43/55/42 45/58/42 44/56/42
f 10/57/23 44/56/23 45/58/23
f 11/18/4 14/226/4 47/60/4
f 51/62/24 53/65/24 52/63/24
f 53/65/25 55/67/25 54/66/25
f 55/67/26 57/69/26 56/68/26
f 57/69/27 59/227/27 58/70/27
f 59/71/28 61/74/28 60/72/28
f 61/74/58 63/76/58 62/75/58
f 63/76/30 65/78/30 64/77/30
f 65/78/31 67/80/31 66/79/31
f 67/80/32 69/82/32 68/81/32
f 69/82/33 71/84/33 70/83/33
f 71/84/59 73/86/59 72/85/59
f 73/86/35 75/228/35 74/87/35
f 75/88/36 77/91/36 76/89/36
f 77/91/37 79/93/37 78/92/37
f 79/93/38 81/95/38 80/94/38
f 81/95/39 83/97/39 82/96/39
f 83/97/8 85/99/8 84/98/8
f 85/99/60 87/101/60 86/100/60
f 87/101/56 89/103/56 88/102/56
f 89/103/11 91/229/11 90/104/11
f 91/105/12 93/108/12 92/106/12
f 93/108/13 95/110/13 94/109/13
f 95/110/14 97/112/14 96/111/14
f 97/112/15 99/114/15 98/113/15
f 99/114/61 101/116/61 100/115/61
f 101/116/17 103/118/17 102/117/17
f 103/118/62 105/120/62 104/119/62
f 105/120/19 107/230/19 106/121/19
f 107/122/20 109/125/20 108/123/20
f 109/125/21 111/130/21 110/126/21
f 55/231/3 53/232/3 111/233/3
f 53/232/3 51/234/3 113/235/3
f 111/233/3 53/232/3 113/235/3
f 111/233/3 109/236/3 55/231/3
f 109/236/3 107/129/3 57/128/3
f 55/231/3 109/236/3 57/128/3
f 107/129/3 105/237/3 59/127/3
f 105/237/3 103/238/3 61/239/3
f 59/127/3 105/237/3 61/239/3
f 103/238/3 101/240/3 65/241/3
f 101/240/3 99/242/3 67/243/3
f 99/242/3 97/244/3 69/245/3
f 97/244/3 95/246/3 71/247/3
f 95/246/3 93/248/3 71/247/3
f 93/248/3 91/249/3 73/250/3
f 71/247/3 93/248/3 73/250/3
f 91/249/3 89/251/3 75/252/3
f 89/251/3 87/253/3 77/254/3
f 75/252/3 89/251/3 77/254/3
f 87/253/3 85/255/3 79/256/3
f 85/255/3 83/257/3 81/258/3
f 79/256/3 85/255/3 81/258/3
f 79/256/3 77/254/3 87/253/3
f 75/252/3 73/250/3 91/249/3
f 71/247/3 69/245/3 97/244/3
f 69/245/3 67/243/3 99/242/3
f 67/243/3 65/241/3 101/240/3
f 65/241/3 63/259/3 103/238/3
f 63/259/3 61/239/3 103/238/3
f 111/130/42 113/132/42 112/131/42
f 113/132/23 51/62/23 50/64/23
f 115/133/24 117/136/24 116/134/24
f 117/136/25 119/138/25 118/137/25
f 119/138/26 121/140/26 120/139/26
f 121/140/27 123/260/27 122/141/27
f 123/142/28 125/145/28 124/143/28
f 125/145/58 127/147/58 126/146/58
f 127/147/30 129/149/30 128/148/30
f 129/149/31 131/151/31 130/150/31
f 131/151/32 133/153/32 132/152/32
f 133/153/33 135/155/33 134/154/33
f 135/155/59 137/157/59 136/156/59
f 137/157/35 139/261/35 138/158/35
f 139/159/36 141/162/36 140/160/36
f 141/162/37 143/164/37 142/163/37
f 143/164/38 145/166/38 144/165/38
f 145/166/39 147/168/39 146/167/39
f 147/168/8 149/170/8 148/169/8
f 149/170/60 151/172/60 150/171/60
f 151/172/56 153/174/56 152/173/56
f 153/174/11 155/262/11 154/175/11
f 155/176/12 157/179/12 156/177/12
f 157/179/13 159/181/13 158/180/13
f 159/181/14 161/183/14 160/182/14
f 161/183/15 163/185/15 162/184/15
f 163/185/61 165/187/61 164/186/61
f 165/187/17 167/189/17 166/188/17
f 167/189/62 169/191/62 168/190/62
f 169/191/19 171/263/19 170/192/19
f 171/193/20 173/196/20 172/194/20
f 173/196/21 175/198/21 174/197/21
f 175/198/42 177/200/42 176/199/42
f 177/200/23 115/133/23 114/135/23
f 176/264/1 114/265/1 116/266/1
f 116/266/1 118/267/1 176/264/1
f 118/267/1 120/203/1 174/202/1
f 176/264/1 118/267/1 174/202/1
f 120/203/1 122/268/1 170/269/1
f 122/268/1 124/270/1 168/271/1
f 124/270/1 126/272/1 168/271/1
f 126/272/1 128/273/1 166/274/1
f 168/271/1 126/272/1 166/274/1
f 128/273/1 130/275/1 162/276/1
f 130/275/1 132/277/1 160/278/1
f 132/277/1 134/279/1 160/278/1
f 134/279/1 136/280/1 158/281/1
f 160/278/1 134/279/1 158/281/1
f 136/280/1 138/282/1 154/283/1
f 138/282/1 140/284/1 152/285/1
f 140/284/1 142/286/1 152/285/1
f 142/286/1 144/287/1 150/288/1
f 152/285/1 142/286/1 150/288/1
f 144/287/1 146/289/1 148/290/1
f 148/290/1 150/288/1 144/287/1
f 152/285/1 154/283/1 138/282/1
f 154/283/1 156/291/1 136/280/1
f 156/291/1 158/281/1 136/280/1
f 160/278/1 162/276/1 130/275/1
f 162/276/1 164/292/1 128/273/1
f 164/292/1 166/274/1 128/273/1
f 168/271/1 170/269/1 122/268/1
f 170/269/1 172/201/1 120/203/1
f 48/205/3 49/293/3 31/294/3
f 49/293/3 13/295/3 39/296/3
f 31/294/3 49/293/3 33/297/3
f 13/295/3 45/298/3 43/299/3
f 43/299/3 41/300/3 13/295/3
f 41/300/3 39/296/3 13/295/3
f 39/296/3 37/301/3 49/293/3
f 37/301/3 35/302/3 49/293/3
f 35/302/3 33/297/3 49/293/3
f 31/294/3 29/303/3 48/205/3
f 29/303/3 27/304/3 48/205/3
f 27/304/3 25/305/3 48/205/3
f 25/305/3 23/206/3 48/205/3
f 23/206/3 21/306/3 15/204/3
f 21/306/3 19/307/3 15/204/3
f 19/307/3 17/308/3 15/204/3
