# Blender v2.82 (sub 7) OBJ File: 'InitialFile.blend'
# www.blender.org
mtllib body_l_prox_pinvpin2.mtl
o body_l_prox_pinvpin2_Cube.577
v -0.160000 0.000000 0.053750
v -0.160000 0.100000 0.053750
v -0.160000 0.000000 -0.053750
v -0.160000 0.100000 -0.053750
v 0.160000 0.000000 0.053750
v 0.160000 0.100000 0.053750
v 0.160000 0.000000 -0.053750
v 0.160000 0.100000 -0.053750
v -0.160000 0.100000 0.107500
v -0.160000 0.542400 0.107500
v -0.160000 0.100000 -0.107500
v -0.160000 0.542400 -0.107500
v 0.160000 0.100000 0.107500
v 0.160000 0.542400 0.107500
v 0.160000 0.100000 -0.107500
v 0.160000 0.542400 -0.107500
v -0.160000 0.637900 0.107500
v -0.160000 0.637900 -0.107500
v 0.160000 0.637900 0.107500
v 0.160000 0.637900 -0.107500
v 0.160080 0.637900 -0.107500
v -0.160080 0.637900 0.107500
v 0.160080 0.637900 0.107500
v -0.160080 0.656531 0.105434
v 0.160080 0.656531 0.105434
v -0.160080 0.674446 0.099317
v 0.160080 0.674446 0.099317
v -0.160080 0.690957 0.089383
v 0.160080 0.690957 0.089383
v -0.160080 0.705429 0.076014
v 0.160080 0.705429 0.076014
v -0.160080 0.717306 0.059724
v 0.160080 0.717306 0.059724
v -0.160080 0.726131 0.041138
v 0.160080 0.726131 0.041138
v -0.160080 0.731565 0.020972
v 0.160080 0.731565 0.020972
v -0.160080 0.733400 -0.000000
v 0.160080 0.733400 -0.000000
v -0.160080 0.731565 -0.020972
v 0.160080 0.731565 -0.020972
v -0.160080 0.726131 -0.041139
v 0.160080 0.726130 -0.041139
v -0.160080 0.717305 -0.059724
v 0.160080 0.717305 -0.059724
v -0.160080 0.705429 -0.076014
v 0.160080 0.705429 -0.076014
v -0.160080 0.690957 -0.089383
v 0.160080 0.690957 -0.089383
v -0.160080 0.674446 -0.099317
v 0.160080 0.674446 -0.099317
v -0.160080 0.656531 -0.105434
v 0.160080 0.656531 -0.105434
v -0.159920 0.542400 -0.107500
v -0.159920 0.542400 0.107500
v 0.160080 0.542400 0.107500
v 0.160080 0.542400 -0.107500
v 0.160000 0.637900 -0.026875
v 0.176000 0.637900 -0.026875
v 0.160000 0.633242 -0.026359
v 0.176000 0.633242 -0.026359
v 0.160000 0.628764 -0.024829
v 0.176000 0.628764 -0.024829
v 0.160000 0.624636 -0.022346
v 0.176000 0.624636 -0.022346
v 0.160000 0.621018 -0.019003
v 0.176000 0.621018 -0.019003
v 0.160000 0.618049 -0.014931
v 0.176000 0.618049 -0.014931
v 0.160000 0.615842 -0.010285
v 0.176000 0.615842 -0.010285
v 0.160000 0.614484 -0.005243
v 0.176000 0.614484 -0.005243
v 0.160000 0.614025 -0.000000
v 0.176000 0.614025 -0.000000
v 0.160000 0.614484 0.005243
v 0.176000 0.614484 0.005243
v 0.160000 0.615842 0.010285
v 0.176000 0.615842 0.010285
v 0.160000 0.618049 0.014931
v 0.176000 0.618049 0.014931
v 0.160000 0.621018 0.019003
v 0.176000 0.621018 0.019003
v 0.160000 0.624636 0.022346
v 0.176000 0.624636 0.022346
v 0.160000 0.628764 0.024829
v 0.176000 0.628764 0.024829
v 0.160000 0.633242 0.026359
v 0.176000 0.633242 0.026359
v 0.160000 0.637900 0.026875
v 0.176000 0.637900 0.026875
v 0.160000 0.642558 0.026359
v 0.176000 0.642558 0.026359
v 0.160000 0.647037 0.024829
v 0.176000 0.647037 0.024829
v 0.160000 0.651164 0.022346
v 0.176000 0.651164 0.022346
v 0.160000 0.654782 0.019003
v 0.176000 0.654782 0.019003
v 0.160000 0.657751 0.014931
v 0.176000 0.657751 0.014931
v 0.160000 0.659958 0.010285
v 0.176000 0.659958 0.010285
v 0.160000 0.661316 0.005243
v 0.176000 0.661316 0.005243
v 0.160000 0.661775 -0.000000
v 0.176000 0.661775 -0.000000
v 0.160000 0.661316 -0.005243
v 0.176000 0.661316 -0.005243
v 0.160000 0.659958 -0.010285
v 0.176000 0.659958 -0.010285
v 0.160000 0.657751 -0.014931
v 0.176000 0.657751 -0.014931
v 0.160000 0.654782 -0.019004
v 0.176000 0.654782 -0.019004
v 0.160000 0.651164 -0.022346
v 0.176000 0.651164 -0.022346
v 0.160000 0.647037 -0.024829
v 0.176000 0.647037 -0.024829
v 0.160000 0.642558 -0.026359
v 0.176000 0.642558 -0.026359
v -0.176000 0.637900 -0.026875
v -0.160000 0.637900 -0.026875
v -0.176000 0.633242 -0.026359
v -0.160000 0.633242 -0.026359
v -0.176000 0.628764 -0.024829
v -0.160000 0.628764 -0.024829
v -0.176000 0.624636 -0.022346
v -0.160000 0.624636 -0.022346
v -0.176000 0.621018 -0.019003
v -0.160000 0.621018 -0.019003
v -0.176000 0.618049 -0.014931
v -0.160000 0.618049 -0.014931
v -0.176000 0.615842 -0.010285
v -0.160000 0.615842 -0.010285
v -0.176000 0.614484 -0.005243
v -0.160000 0.614484 -0.005243
v -0.176000 0.614025 -0.000000
v -0.160000 0.614025 -0.000000
v -0.176000 0.614484 0.005243
v -0.160000 0.614484 0.005243
v -0.176000 0.615842 0.010285
v -0.160000 0.615842 0.010285
v -0.176000 0.618049 0.014931
v -0.160000 0.618049 0.014931
v -0.176000 0.621018 0.019003
v -0.160000 0.621018 0.019003
v -0.176000 0.624636 0.022346
v -0.160000 0.624636 0.022346
v -0.176000 0.628764 0.024829
v -0.160000 0.628764 0.024829
v -0.176000 0.633242 0.026359
v -0.160000 0.633242 0.026359
v -0.176000 0.637900 0.026875
v -0.160000 0.637900 0.026875
v -0.176000 0.642558 0.026359
v -0.160000 0.642558 0.026359
v -0.176000 0.647037 0.024829
v -0.160000 0.647037 0.024829
v -0.176000 0.651164 0.022346
v -0.160000 0.651164 0.022346
v -0.176000 0.654782 0.019003
v -0.160000 0.654782 0.019003
v -0.176000 0.657751 0.014931
v -0.160000 0.657751 0.014931
v -0.176000 0.659958 0.010285
v -0.160000 0.659958 0.010285
v -0.176000 0.661316 0.005243
v -0.160000 0.661316 0.005243
v -0.176000 0.661775 -0.000000
v -0.160000 0.661775 -0.000000
v -0.176000 0.661316 -0.005243
v -0.160000 0.661316 -0.005243
v -0.176000 0.659958 -0.010285
v -0.160000 0.659958 -0.010285
v -0.176000 0.657751 -0.014931
v -0.160000 0.657751 -0.014931
v -0.176000 0.654782 -0.019004
v -0.160000 0.654782 -0.019004
v -0.176000 0.651164 -0.022346
v -0.160000 0.651164 -0.022346
v -0.176000 0.647037 -0.024829
v -0.160000 0.647037 -0.024829
v -0.176000 0.642558 -0.026359
v -0.160000 0.642558 -0.026359
vt 0.625000 0.000000
vt 0.375000 0.250000
vt 0.375000 0.000000
vt 0.625000 0.250000
vt 0.375000 0.500000
vt 0.625000 0.500000
vt 0.375000 0.750000
vt 0.625000 0.750000
vt 0.375000 1.000000
vt 0.125000 0.750000
vt 0.125000 0.500000
vt 0.625000 0.000000
vt 0.375000 0.250000
vt 0.375000 0.000000
vt 0.625000 0.250000
vt 0.375000 0.500000
vt 0.625000 0.500000
vt 0.375000 0.750000
vt 0.625000 0.750000
vt 0.375000 1.000000
vt 0.125000 0.750000
vt 0.125000 0.500000
vt 0.875000 0.500000
vt 0.625000 1.000000
vt 0.625000 1.000000
vt 0.875000 0.750000
vt 0.991603 0.651410
vt 0.823659 0.348431
vt 0.991603 0.348431
vt 0.638887 0.651490
vt 0.638887 0.651566
vt 0.638887 0.348510
vt 0.555104 0.015149
vt 0.555104 0.318129
vt 0.386891 0.166639
vt 0.261158 0.681712
vt 0.228216 0.984843
vt 0.228216 0.681712
vt 0.196197 0.681712
vt 0.166331 0.984843
vt 0.166331 0.681712
vt 0.139765 0.681712
vt 0.618651 0.651566
vt 0.591233 0.348434
vt 0.618651 0.348434
vt 0.591233 0.651566
vt 0.560767 0.348434
vt 0.560767 0.651566
vt 0.528425 0.348434
vt 0.528425 0.651566
vt 0.495450 0.348434
vt 0.495450 0.651566
vt 0.463108 0.348434
vt 0.432642 0.651566
vt 0.432642 0.348434
vt 0.405224 0.348434
vt 0.405224 0.651566
vt 0.381907 0.348434
vt 0.006077 0.681712
vt 0.032710 0.984843
vt 0.006077 0.984843
vt 0.032710 0.681712
vt 0.062625 0.984843
vt 0.062625 0.681712
vt 0.094672 0.984843
vt 0.127619 0.984768
vt 0.094672 0.681712
vt 0.127619 0.681788
vt 0.806863 0.348586
vt 0.806863 0.651566
vt 0.794808 0.254696
vt 0.777987 0.262032
vt 0.777987 0.254696
vt 0.794808 0.262032
vt 0.777987 0.269003
vt 0.794808 0.269003
vt 0.777987 0.275342
vt 0.794808 0.275342
vt 0.777987 0.280805
vt 0.757801 0.168514
vt 0.740980 0.174254
vt 0.740980 0.168514
vt 0.757801 0.174254
vt 0.740980 0.180801
vt 0.757801 0.180801
vt 0.740980 0.187906
vt 0.757801 0.187906
vt 0.740980 0.195294
vt 0.757801 0.195294
vt 0.740980 0.202683
vt 0.757801 0.202683
vt 0.740980 0.209788
vt 0.757801 0.209788
vt 0.740980 0.216335
vt 0.757801 0.216335
vt 0.740980 0.222074
vt 0.759483 0.280828
vt 0.776305 0.275347
vt 0.776305 0.280828
vt 0.759483 0.275347
vt 0.776305 0.268994
vt 0.759483 0.268994
vt 0.776305 0.262014
vt 0.759483 0.262014
vt 0.776305 0.254674
vt 0.759483 0.254674
vt 0.776305 0.247258
vt 0.759483 0.247258
vt 0.776305 0.240049
vt 0.759483 0.240049
vt 0.776305 0.233324
vt 0.759483 0.233324
vt 0.776305 0.227343
vt 0.286572 0.722523
vt 0.303394 0.716349
vt 0.303394 0.722523
vt 0.286572 0.716349
vt 0.303394 0.709490
vt 0.286572 0.709490
vt 0.303394 0.702209
vt 0.286572 0.702209
vt 0.303394 0.694784
vt 0.286572 0.694784
vt 0.303394 0.687503
vt 0.286572 0.687503
vt 0.303394 0.680643
vt 0.286572 0.680643
vt 0.303394 0.674470
vt 0.286572 0.674470
vt 0.303394 0.669221
vt 0.794808 0.227332
vt 0.777987 0.233328
vt 0.777987 0.227332
vt 0.794808 0.233328
vt 0.777987 0.240063
vt 0.753667 0.017433
vt 0.759496 0.012183
vt 0.812853 0.012183
vt 0.794808 0.240063
vt 0.777987 0.247278
vt 0.794808 0.247278
vt 0.794808 0.195875
vt 0.777987 0.203210
vt 0.777987 0.195875
vt 0.794808 0.203210
vt 0.777987 0.210182
vt 0.794808 0.210182
vt 0.777987 0.216521
vt 0.794808 0.216521
vt 0.777987 0.221984
vt 0.757801 0.227430
vt 0.740980 0.233169
vt 0.740980 0.227430
vt 0.757801 0.233169
vt 0.740980 0.239717
vt 0.757801 0.239717
vt 0.740980 0.246822
vt 0.757801 0.246822
vt 0.740980 0.254210
vt 0.757801 0.254210
vt 0.740980 0.261599
vt 0.757801 0.261599
vt 0.740980 0.268703
vt 0.757801 0.268703
vt 0.740980 0.275251
vt 0.757801 0.275251
vt 0.740980 0.280990
vt 0.759483 0.221995
vt 0.776305 0.216514
vt 0.776305 0.221995
vt 0.759483 0.216514
vt 0.776305 0.210161
vt 0.759483 0.210161
vt 0.776305 0.203181
vt 0.759483 0.203181
vt 0.776305 0.195842
vt 0.759483 0.195842
vt 0.776305 0.188425
vt 0.759483 0.188425
vt 0.776305 0.181216
vt 0.759483 0.181216
vt 0.776305 0.174492
vt 0.759483 0.174492
vt 0.776305 0.168511
vt 0.268069 0.722523
vt 0.284890 0.716349
vt 0.284890 0.722523
vt 0.268069 0.716349
vt 0.284890 0.709490
vt 0.268069 0.709490
vt 0.284890 0.702209
vt 0.268069 0.702209
vt 0.284890 0.694784
vt 0.268069 0.694784
vt 0.284890 0.687503
vt 0.268069 0.687503
vt 0.284890 0.680644
vt 0.268069 0.680644
vt 0.284890 0.674470
vt 0.268069 0.674470
vt 0.284890 0.669221
vt 0.794808 0.168510
vt 0.777987 0.174507
vt 0.777987 0.168510
vt 0.794808 0.174507
vt 0.777987 0.181242
vt 0.794808 0.181242
vt 0.777987 0.188457
vt 0.794808 0.188457
vt 0.759496 0.095102
vt 0.766351 0.090977
vt 0.805998 0.090977
vt 0.185035 0.015149
vt 0.185035 0.318129
vt 0.016821 0.166639
vt 0.353248 0.651407
vt 0.016821 0.348427
vt 0.353248 0.348427
vt 0.823659 0.651486
vt 0.522287 0.018060
vt 0.490732 0.026680
vt 0.723317 0.015149
vt 0.723317 0.318129
vt 0.522287 0.315218
vt 0.490731 0.306597
vt 0.461650 0.292598
vt 0.436159 0.273758
vt 0.415240 0.250802
vt 0.399695 0.224611
vt 0.390123 0.196193
vt 0.390123 0.137084
vt 0.399695 0.108666
vt 0.415240 0.082475
vt 0.436159 0.059519
vt 0.461650 0.040680
vt 0.261158 0.984843
vt 0.196197 0.984843
vt 0.139765 0.984843
vt 0.463108 0.651566
vt 0.381907 0.651566
vt 0.638887 0.348434
vt 0.794808 0.280805
vt 0.757801 0.222074
vt 0.759483 0.227343
vt 0.286572 0.669221
vt 0.766351 0.008059
vt 0.773967 0.005217
vt 0.790297 0.003769
vt 0.782053 0.003769
vt 0.798382 0.005217
vt 0.805998 0.008059
vt 0.818682 0.017433
vt 0.823262 0.023606
vt 0.749087 0.023606
vt 0.826417 0.030465
vt 0.744324 0.037747
vt 0.828026 0.037747
vt 0.744324 0.045171
vt 0.828026 0.045171
vt 0.745932 0.052453
vt 0.826417 0.052453
vt 0.749087 0.059312
vt 0.823262 0.059312
vt 0.818682 0.065485
vt 0.753667 0.065485
vt 0.812853 0.070735
vt 0.759496 0.070735
vt 0.805999 0.074860
vt 0.766351 0.074860
vt 0.798382 0.077701
vt 0.782053 0.079149
vt 0.790297 0.079149
vt 0.773967 0.077701
vt 0.745932 0.030465
vt 0.794808 0.221984
vt 0.757801 0.280990
vt 0.759483 0.168511
vt 0.268069 0.669221
vt 0.773967 0.088136
vt 0.782053 0.086687
vt 0.790297 0.086687
vt 0.798382 0.088136
vt 0.812853 0.095102
vt 0.753667 0.100351
vt 0.818682 0.100351
vt 0.749087 0.106524
vt 0.823262 0.106524
vt 0.826417 0.113384
vt 0.745932 0.113384
vt 0.828025 0.120665
vt 0.744324 0.128089
vt 0.828025 0.128090
vt 0.745932 0.135371
vt 0.826417 0.135371
vt 0.823262 0.142230
vt 0.749087 0.142230
vt 0.818682 0.148403
vt 0.759496 0.153653
vt 0.812853 0.153653
vt 0.766351 0.157778
vt 0.805998 0.157778
vt 0.798382 0.160619
vt 0.773967 0.160619
vt 0.790296 0.162067
vt 0.782053 0.162067
vt 0.753667 0.148403
vt 0.744324 0.120665
vt 0.353248 0.015149
vt 0.353248 0.318129
vt 0.152218 0.315218
vt 0.120662 0.306597
vt 0.091581 0.292598
vt 0.066090 0.273759
vt 0.045170 0.250802
vt 0.029626 0.224612
vt 0.020054 0.196193
vt 0.020054 0.137085
vt 0.029626 0.108666
vt 0.045170 0.082476
vt 0.066090 0.059519
vt 0.091580 0.040680
vt 0.120662 0.026680
vt 0.152218 0.018060
vt 0.016821 0.651407
vn -1.0000 0.0000 0.0000
vn 0.0000 0.0000 -1.0000
vn 1.0000 0.0000 0.0000
vn 0.0000 0.0000 1.0000
vn 0.0000 -1.0000 0.0000
vn 0.0000 1.0000 0.0000
vn -1.0000 -0.0004 -0.0004
vn 0.0000 0.1102 0.9939
vn 0.0000 0.3231 0.9463
vn 0.0000 0.5156 0.8569
vn 0.0000 0.6786 0.7345
vn 0.0000 0.8080 0.5891
vn 0.0000 0.9033 0.4289
vn 0.0000 0.9656 0.2602
vn 0.0000 0.9962 0.0872
vn 0.0000 0.9962 -0.0872
vn 0.0000 0.9656 -0.2602
vn 0.0000 0.9033 -0.4289
vn 0.0000 0.8080 -0.5891
vn 0.0000 0.6786 -0.7345
vn 0.0000 0.5155 -0.8569
vn 0.0000 0.3231 -0.9464
vn 0.0000 0.1102 -0.9939
vn 0.0000 -0.1102 -0.9939
vn 0.0000 -0.3231 -0.9464
vn 0.0000 -0.5155 -0.8569
vn 0.0000 -0.6786 -0.7345
vn 0.0000 -0.8080 -0.5891
vn 0.0000 -0.9033 -0.4289
vn 0.0000 -0.9656 -0.2602
vn 0.0000 -0.9962 -0.0872
vn 0.0000 -0.9962 0.0872
vn 0.0000 -0.9656 0.2602
vn 0.0000 -0.9033 0.4289
vn 0.0000 -0.8081 0.5891
vn 0.0000 -0.6786 0.7345
vn 0.0000 -0.5156 0.8569
vn 0.0000 -0.3231 0.9463
vn 0.0000 -0.1102 0.9939
vn 0.0000 0.5155 0.8569
vn 0.0000 0.9962 0.0871
vn -0.9998 -0.0064 0.0186
vn -1.0000 -0.0008 -0.0004
vn -1.0000 -0.0017 0.0000
vn -1.0000 -0.0009 0.0001
vn -1.0000 -0.0011 0.0003
vn -1.0000 -0.0014 0.0007
vn -1.0000 -0.0018 0.0013
vn -1.0000 -0.0024 0.0026
vn -1.0000 -0.0035 0.0058
vn 0.0000 0.5156 -0.8569
vn 0.0000 -0.3231 -0.9463
vn 0.0000 -0.5156 -0.8569
vn 0.0000 -0.8081 -0.5891
vn 0.0000 -0.8080 0.5891
vn 0.0000 -0.5155 0.8569
vn 0.0000 -0.3231 0.9464
vn 0.0000 0.3231 0.9464
vn 0.0000 0.9962 -0.0871
vn 0.0000 0.3231 -0.9463
usemtl mat.185
s off
f 2/1/1 3/2/1 1/3/1
f 4/4/2 7/5/2 3/2/2
f 8/6/3 5/7/3 7/5/3
f 6/8/4 1/9/4 5/7/4
f 7/5/5 1/10/5 3/11/5
f 10/12/1 11/13/1 9/14/1
f 12/15/2 15/16/2 11/13/2
f 16/17/3 13/18/3 15/16/3
f 14/19/4 9/20/4 13/18/4
f 15/16/5 9/21/5 11/22/5
f 12/23/6 14/19/6 16/17/6
f 2/1/1 4/4/1 3/2/1
f 4/4/2 8/6/2 7/5/2
f 8/6/3 6/8/3 5/7/3
f 6/8/4 2/24/4 1/9/4
f 7/5/5 5/7/5 1/10/5
f 10/12/1 12/15/1 11/13/1
f 12/15/2 16/17/2 15/16/2
f 16/17/3 14/19/3 13/18/3
f 14/19/4 10/25/4 9/20/4
f 15/16/5 13/18/5 9/21/5
f 12/23/6 10/26/6 14/19/6
usemtl Pin_Texture.076
f 54/27/2 21/28/2 57/29/2
f 19/30/4 23/31/4 17/32/4
f 18/33/7 22/34/7 38/35/7
f 22/36/8 25/37/8 24/38/8
f 25/37/9 26/39/9 24/38/9
f 26/39/10 29/40/10 28/41/10
f 29/40/11 30/42/11 28/41/11
f 31/43/12 32/44/12 30/45/12
f 33/46/13 34/47/13 32/44/13
f 35/48/14 36/49/14 34/47/14
f 37/50/15 38/51/15 36/49/15
f 39/52/16 40/53/16 38/51/16
f 40/53/17 43/54/17 42/55/17
f 43/54/18 44/56/18 42/55/18
f 45/57/19 46/58/19 44/56/19
f 47/59/20 48/60/20 46/61/20
f 49/62/21 50/63/21 48/60/21
f 51/64/22 52/65/22 50/63/22
f 18/66/23 53/67/23 20/68/23
f 19/30/4 55/69/4 56/70/4
f 59/71/24 60/72/24 58/73/24
f 61/74/25 62/75/25 60/72/25
f 63/76/26 64/77/26 62/75/26
f 65/78/27 66/79/27 64/77/27
f 67/80/28 68/81/28 66/82/28
f 69/83/29 70/84/29 68/81/29
f 71/85/30 72/86/30 70/84/30
f 73/87/31 74/88/31 72/86/31
f 75/89/32 76/90/32 74/88/32
f 77/91/33 78/92/33 76/90/33
f 79/93/34 80/94/34 78/92/34
f 81/95/35 82/96/35 80/94/35
f 83/97/36 84/98/36 82/99/36
f 85/100/37 86/101/37 84/98/37
f 87/102/38 88/103/38 86/101/38
f 89/104/39 90/105/39 88/103/39
f 91/106/8 92/107/8 90/105/8
f 93/108/9 94/109/9 92/107/9
f 95/110/40 96/111/40 94/109/40
f 97/112/11 98/113/11 96/111/11
f 99/114/12 100/115/12 98/116/12
f 101/117/13 102/118/13 100/115/13
f 103/119/14 104/120/14 102/118/14
f 105/121/41 106/122/41 104/120/41
f 107/123/16 108/124/16 106/122/16
f 109/125/17 110/126/17 108/124/17
f 111/127/18 112/128/18 110/126/18
f 113/129/19 114/130/19 112/128/19
f 115/131/20 116/132/20 114/133/20
f 117/134/21 118/135/21 116/132/21
f 67/136/3 65/137/3 115/138/3
f 119/139/22 120/140/22 118/135/22
f 121/141/23 58/73/23 120/140/23
f 123/142/24 124/143/24 122/144/24
f 125/145/25 126/146/25 124/143/25
f 127/147/26 128/148/26 126/146/26
f 129/149/27 130/150/27 128/148/27
f 131/151/28 132/152/28 130/153/28
f 133/154/29 134/155/29 132/152/29
f 135/156/30 136/157/30 134/155/30
f 137/158/31 138/159/31 136/157/31
f 139/160/32 140/161/32 138/159/32
f 141/162/33 142/163/33 140/161/33
f 143/164/34 144/165/34 142/163/34
f 145/166/35 146/167/35 144/165/35
f 147/168/36 148/169/36 146/170/36
f 149/171/37 150/172/37 148/169/37
f 151/173/38 152/174/38 150/172/38
f 153/175/39 154/176/39 152/174/39
f 155/177/8 156/178/8 154/176/8
f 157/179/9 158/180/9 156/178/9
f 159/181/40 160/182/40 158/180/40
f 161/183/11 162/184/11 160/182/11
f 163/185/12 164/186/12 162/187/12
f 165/188/13 166/189/13 164/186/13
f 167/190/14 168/191/14 166/189/14
f 169/192/41 170/193/41 168/191/41
f 171/194/16 172/195/16 170/193/16
f 173/196/17 174/197/17 172/195/17
f 175/198/18 176/199/18 174/197/18
f 177/200/19 178/201/19 176/199/19
f 179/202/20 180/203/20 178/204/20
f 181/205/21 182/206/21 180/203/21
f 183/207/22 184/208/22 182/206/22
f 185/209/23 122/144/23 184/208/23
f 180/210/1 182/211/1 128/212/1
f 23/213/3 21/214/3 39/215/3
f 55/216/5 57/217/5 56/218/5
f 54/27/2 18/219/2 21/28/2
f 19/30/4 56/70/4 23/31/4
f 52/220/42 18/33/42 50/221/42
f 18/33/43 54/222/43 22/34/43
f 54/222/44 55/223/44 22/34/44
f 22/34/1 24/224/1 26/225/1
f 26/225/1 28/226/1 22/34/1
f 28/226/1 30/227/1 22/34/1
f 30/227/1 32/228/1 22/34/1
f 32/228/1 34/229/1 22/34/1
f 34/229/1 36/230/1 22/34/1
f 36/230/1 38/35/1 22/34/1
f 38/35/45 40/231/45 18/33/45
f 40/231/46 42/232/46 18/33/46
f 42/232/47 44/233/47 18/33/47
f 44/233/48 46/234/48 18/33/48
f 46/234/49 48/235/49 18/33/49
f 48/235/50 50/221/50 18/33/50
f 22/36/8 23/236/8 25/37/8
f 25/37/9 27/237/9 26/39/9
f 26/39/40 27/237/40 29/40/40
f 29/40/11 31/238/11 30/42/11
f 31/43/12 33/46/12 32/44/12
f 33/46/13 35/48/13 34/47/13
f 35/48/14 37/50/14 36/49/14
f 37/50/15 39/52/15 38/51/15
f 39/52/16 41/239/16 40/53/16
f 40/53/17 41/239/17 43/54/17
f 43/54/18 45/57/18 44/56/18
f 45/57/19 47/240/19 46/58/19
f 47/59/20 49/62/20 48/60/20
f 49/62/51 51/64/51 50/63/51
f 51/64/22 53/67/22 52/65/22
f 18/66/23 52/65/23 53/67/23
f 19/30/4 22/241/4 55/69/4
f 59/71/24 61/74/24 60/72/24
f 61/74/52 63/76/52 62/75/52
f 63/76/53 65/78/53 64/77/53
f 65/78/27 67/242/27 66/79/27
f 67/80/54 69/83/54 68/81/54
f 69/83/29 71/85/29 70/84/29
f 71/85/30 73/87/30 72/86/30
f 73/87/31 75/89/31 74/88/31
f 75/89/32 77/91/32 76/90/32
f 77/91/33 79/93/33 78/92/33
f 79/93/34 81/95/34 80/94/34
f 81/95/55 83/243/55 82/96/55
f 83/97/36 85/100/36 84/98/36
f 85/100/56 87/102/56 86/101/56
f 87/102/57 89/104/57 88/103/57
f 89/104/39 91/106/39 90/105/39
f 91/106/8 93/108/8 92/107/8
f 93/108/58 95/110/58 94/109/58
f 95/110/10 97/112/10 96/111/10
f 97/112/11 99/244/11 98/113/11
f 99/114/12 101/117/12 100/115/12
f 101/117/13 103/119/13 102/118/13
f 103/119/14 105/121/14 104/120/14
f 105/121/15 107/123/15 106/122/15
f 107/123/59 109/125/59 108/124/59
f 109/125/17 111/127/17 110/126/17
f 111/127/18 113/129/18 112/128/18
f 113/129/19 115/245/19 114/130/19
f 115/131/20 117/134/20 116/132/20
f 117/134/21 119/139/21 118/135/21
f 63/246/3 61/247/3 121/248/3
f 61/247/3 59/249/3 121/248/3
f 121/248/3 119/250/3 63/246/3
f 119/250/3 117/251/3 63/246/3
f 117/251/3 115/138/3 65/137/3
f 63/246/3 117/251/3 65/137/3
f 115/138/3 113/252/3 67/136/3
f 113/252/3 111/253/3 69/254/3
f 67/136/3 113/252/3 69/254/3
f 111/253/3 109/255/3 73/256/3
f 109/255/3 107/257/3 75/258/3
f 107/257/3 105/259/3 77/260/3
f 105/259/3 103/261/3 79/262/3
f 103/261/3 101/263/3 79/262/3
f 101/263/3 99/264/3 81/265/3
f 79/262/3 101/263/3 81/265/3
f 99/264/3 97/266/3 83/267/3
f 97/266/3 95/268/3 85/269/3
f 83/267/3 97/266/3 85/269/3
f 95/268/3 93/270/3 89/271/3
f 93/270/3 91/272/3 89/271/3
f 89/271/3 87/273/3 95/268/3
f 87/273/3 85/269/3 95/268/3
f 83/267/3 81/265/3 99/264/3
f 79/262/3 77/260/3 105/259/3
f 77/260/3 75/258/3 107/257/3
f 75/258/3 73/256/3 109/255/3
f 73/256/3 71/274/3 111/253/3
f 71/274/3 69/254/3 111/253/3
f 119/139/60 121/141/60 120/140/60
f 121/141/23 59/71/23 58/73/23
f 123/142/24 125/145/24 124/143/24
f 125/145/52 127/147/52 126/146/52
f 127/147/53 129/149/53 128/148/53
f 129/149/27 131/275/27 130/150/27
f 131/151/54 133/154/54 132/152/54
f 133/154/29 135/156/29 134/155/29
f 135/156/30 137/158/30 136/157/30
f 137/158/31 139/160/31 138/159/31
f 139/160/32 141/162/32 140/161/32
f 141/162/33 143/164/33 142/163/33
f 143/164/34 145/166/34 144/165/34
f 145/166/55 147/276/55 146/167/55
f 147/168/36 149/171/36 148/169/36
f 149/171/56 151/173/56 150/172/56
f 151/173/57 153/175/57 152/174/57
f 153/175/39 155/177/39 154/176/39
f 155/177/8 157/179/8 156/178/8
f 157/179/58 159/181/58 158/180/58
f 159/181/10 161/183/10 160/182/10
f 161/183/11 163/277/11 162/184/11
f 163/185/12 165/188/12 164/186/12
f 165/188/13 167/190/13 166/189/13
f 167/190/14 169/192/14 168/191/14
f 169/192/15 171/194/15 170/193/15
f 171/194/59 173/196/59 172/195/59
f 173/196/17 175/198/17 174/197/17
f 175/198/18 177/200/18 176/199/18
f 177/200/19 179/278/19 178/201/19
f 179/202/20 181/205/20 180/203/20
f 181/205/21 183/207/21 182/206/21
f 183/207/60 185/209/60 184/208/60
f 185/209/23 123/142/23 122/144/23
f 184/279/1 122/280/1 124/281/1
f 124/281/1 126/282/1 184/279/1
f 126/282/1 128/212/1 182/211/1
f 184/279/1 126/282/1 182/211/1
f 128/212/1 130/283/1 178/284/1
f 130/283/1 132/285/1 176/286/1
f 132/285/1 134/287/1 176/286/1
f 134/287/1 136/288/1 174/289/1
f 176/286/1 134/287/1 174/289/1
f 136/288/1 138/290/1 170/291/1
f 138/290/1 140/292/1 168/293/1
f 140/292/1 142/294/1 168/293/1
f 142/294/1 144/295/1 166/296/1
f 168/293/1 142/294/1 166/296/1
f 144/295/1 146/297/1 162/298/1
f 146/297/1 148/299/1 160/300/1
f 148/299/1 150/301/1 160/300/1
f 150/301/1 152/302/1 158/303/1
f 160/300/1 150/301/1 158/303/1
f 152/302/1 154/304/1 156/305/1
f 156/305/1 158/303/1 152/302/1
f 160/300/1 162/298/1 146/297/1
f 162/298/1 164/306/1 144/295/1
f 164/306/1 166/296/1 144/295/1
f 168/293/1 170/291/1 138/290/1
f 170/291/1 172/307/1 136/288/1
f 172/307/1 174/289/1 136/288/1
f 176/286/1 178/284/1 130/283/1
f 178/284/1 180/210/1 128/212/1
f 56/308/3 57/309/3 21/214/3
f 21/214/3 53/310/3 51/311/3
f 51/311/3 49/312/3 21/214/3
f 49/312/3 47/313/3 21/214/3
f 47/313/3 45/314/3 21/214/3
f 45/314/3 43/315/3 21/214/3
f 43/315/3 41/316/3 21/214/3
f 41/316/3 39/215/3 21/214/3
f 39/215/3 37/317/3 23/213/3
f 37/317/3 35/318/3 23/213/3
f 35/318/3 33/319/3 23/213/3
f 33/319/3 31/320/3 23/213/3
f 31/320/3 29/321/3 23/213/3
f 29/321/3 27/322/3 23/213/3
f 27/322/3 25/323/3 23/213/3
f 23/213/3 56/308/3 21/214/3
f 55/216/5 54/324/5 57/217/5
