# Blender v2.82 (sub 7) OBJ File: 'InitialFile.blend'
# www.blender.org
mtllib body_l_prox_pinvspring_collision.mtl
o body_l_prox_pinvspring_collision_Cube.173
v -0.016000 0.010000 0.010750
v -0.016000 0.063790 0.010750
v -0.016000 0.010000 -0.010750
v -0.016000 0.063790 -0.010750
v 0.016000 0.010000 0.010750
v 0.016000 0.063790 0.010750
v 0.016000 0.010000 -0.010750
v 0.016000 0.063790 -0.010750
v -0.032000 0.073340 0.021500
v -0.032000 0.073340 -0.021500
v 0.032000 0.073340 0.021500
v 0.032000 0.073340 -0.021500
v 0.032016 0.073340 -0.021500
v 0.032016 0.063790 -0.000000
v -0.032016 0.073340 0.021500
v 0.032016 0.073340 0.021500
v -0.032016 0.075203 0.021087
v 0.032016 0.075203 0.021087
v -0.032016 0.076995 0.019863
v 0.032016 0.076995 0.019863
v -0.032016 0.078646 0.017877
v 0.032016 0.078646 0.017877
v -0.032016 0.080093 0.015203
v 0.032016 0.080093 0.015203
v -0.032016 0.081281 0.011945
v 0.032016 0.081281 0.011945
v -0.032016 0.082163 0.008228
v 0.032016 0.082163 0.008228
v -0.032016 0.082706 0.004194
v 0.032016 0.082706 0.004194
v -0.032016 0.082890 -0.000000
v 0.032016 0.082890 -0.000000
v -0.032016 0.082706 -0.004194
v 0.032016 0.082706 -0.004194
v -0.032016 0.082163 -0.008228
v 0.032016 0.082163 -0.008228
v -0.032016 0.081281 -0.011945
v 0.032016 0.081281 -0.011945
v -0.032016 0.080093 -0.015203
v 0.032016 0.080093 -0.015203
v -0.032016 0.078646 -0.017877
v 0.032016 0.078646 -0.017877
v -0.032016 0.076995 -0.019863
v 0.032016 0.076995 -0.019863
v -0.032016 0.075203 -0.021087
v 0.032016 0.075203 -0.021087
v -0.035200 0.073340 -0.005375
v 0.035200 0.073340 -0.005375
v -0.035200 0.072874 -0.005272
v 0.035200 0.072874 -0.005272
v -0.035200 0.072426 -0.004966
v 0.035200 0.072426 -0.004966
v -0.035200 0.072014 -0.004469
v 0.035200 0.072014 -0.004469
v -0.035200 0.071652 -0.003801
v 0.035200 0.071652 -0.003801
v -0.035200 0.071355 -0.002986
v 0.035200 0.071355 -0.002986
v -0.035200 0.071134 -0.002057
v 0.035200 0.071134 -0.002057
v -0.035200 0.070998 -0.001049
v 0.035200 0.070998 -0.001049
v -0.035200 0.070953 -0.000000
v 0.035200 0.070953 -0.000000
v -0.035200 0.070998 0.001049
v 0.035200 0.070998 0.001049
v -0.035200 0.071134 0.002057
v 0.035200 0.071134 0.002057
v -0.035200 0.071355 0.002986
v 0.035200 0.071355 0.002986
v -0.035200 0.071652 0.003801
v 0.035200 0.071652 0.003801
v -0.035200 0.072014 0.004469
v 0.035200 0.072014 0.004469
v -0.035200 0.072426 0.004966
v 0.035200 0.072426 0.004966
v -0.035200 0.072874 0.005272
v 0.035200 0.072874 0.005272
v -0.035200 0.073340 0.005375
v 0.035200 0.073340 0.005375
v -0.035200 0.073806 0.005272
v 0.035200 0.073806 0.005272
v -0.035200 0.074254 0.004966
v 0.035200 0.074254 0.004966
v -0.035200 0.074666 0.004469
v 0.035200 0.074666 0.004469
v -0.035200 0.075028 0.003801
v 0.035200 0.075028 0.003801
v -0.035200 0.075325 0.002986
v 0.035200 0.075325 0.002986
v -0.035200 0.075546 0.002057
v 0.035200 0.075546 0.002057
v -0.035200 0.075682 0.001049
v 0.035200 0.075682 0.001049
v -0.035200 0.075727 -0.000000
v 0.035200 0.075727 -0.000000
v -0.035200 0.075682 -0.001049
v 0.035200 0.075682 -0.001049
v -0.035200 0.075546 -0.002057
v 0.035200 0.075546 -0.002057
v -0.035200 0.075325 -0.002986
v 0.035200 0.075325 -0.002986
v -0.035200 0.075028 -0.003801
v 0.035200 0.075028 -0.003801
v -0.035200 0.074666 -0.004469
v 0.035200 0.074666 -0.004469
v -0.035200 0.074254 -0.004966
v 0.035200 0.074254 -0.004966
v -0.035200 0.073806 -0.005272
v 0.035200 0.073806 -0.005272
v -0.031984 0.063790 -0.021500
v -0.031984 0.063790 0.021500
v 0.032016 0.063790 0.021500
v 0.032016 0.063790 -0.021500
vt 0.625000 0.000000
vt 0.375000 0.250000
vt 0.375000 0.000000
vt 0.625000 0.250000
vt 0.375000 0.500000
vt 0.625000 0.500000
vt 0.375000 0.750000
vt 0.625000 0.750000
vt 0.375000 1.000000
vt 0.125000 0.750000
vt 0.125000 0.500000
vt 0.875000 0.500000
vt 0.625000 1.000000
vt 0.875000 0.750000
vt 1.000000 1.000000
vt 0.968750 0.500000
vt 1.000000 0.500000
vt 0.968750 1.000000
vt 0.937500 0.500000
vt 0.937500 1.000000
vt 0.906250 0.500000
vt 0.906250 1.000000
vt 0.875000 0.500000
vt 0.875000 1.000000
vt 0.843750 0.500000
vt 0.843750 1.000000
vt 0.812500 0.500000
vt 0.812500 1.000000
vt 0.781250 0.500000
vt 0.781250 1.000000
vt 0.750000 0.500000
vt 0.750000 1.000000
vt 0.718750 0.500000
vt 0.718750 1.000000
vt 0.687500 0.500000
vt 0.687500 1.000000
vt 0.656250 0.500000
vt 0.656250 1.000000
vt 0.625000 0.500000
vt 0.625000 1.000000
vt 0.593750 0.500000
vt 0.593750 1.000000
vt 0.562500 0.500000
vt 0.562500 1.000000
vt 0.531250 0.500000
vt 0.531250 1.000000
vt 0.500000 0.500000
vt 0.500000 1.000000
vt 0.468750 0.500000
vt 0.468750 1.000000
vt 0.437500 0.500000
vt 0.437500 1.000000
vt 0.406250 0.500000
vt 0.406250 1.000000
vt 0.375000 0.500000
vt 0.375000 1.000000
vt 0.343750 0.500000
vt 0.343750 1.000000
vt 0.312500 0.500000
vt 0.312500 1.000000
vt 0.281250 0.500000
vt 0.281250 1.000000
vt 0.250000 0.500000
vt 0.250000 1.000000
vt 0.218750 0.500000
vt 0.218750 1.000000
vt 0.187500 0.500000
vt 0.187500 1.000000
vt 0.156250 0.500000
vt 0.156250 1.000000
vt 0.125000 0.500000
vt 0.125000 1.000000
vt 0.093750 0.500000
vt 0.093750 1.000000
vt 0.062500 0.500000
vt 0.419706 0.419706
vt 0.383337 0.449553
vt 0.080295 0.419706
vt 0.062500 1.000000
vt 0.031250 0.500000
vt 0.031250 1.000000
vt 0.000000 0.500000
vt 0.616663 0.449553
vt 0.658156 0.471731
vt 0.883337 0.449553
vt 0.341844 0.471731
vt 0.296822 0.485388
vt 0.203179 0.485389
vt 0.250000 0.490000
vt 0.158156 0.471731
vt 0.116663 0.449553
vt 0.050447 0.383337
vt 0.028269 0.341844
vt 0.449553 0.383337
vt 0.014612 0.296822
vt 0.485388 0.296822
vt 0.010000 0.250000
vt 0.490000 0.250000
vt 0.014611 0.203179
vt 0.485388 0.203178
vt 0.028269 0.158156
vt 0.471731 0.158156
vt 0.050447 0.116663
vt 0.080294 0.080294
vt 0.449553 0.116663
vt 0.116663 0.050447
vt 0.419706 0.080294
vt 0.158156 0.028269
vt 0.383337 0.050447
vt 0.203178 0.014612
vt 0.341844 0.028269
vt 0.250000 0.010000
vt 0.296822 0.014612
vt 0.471731 0.341844
vt 0.000000 1.000000
vt 0.703179 0.485389
vt 0.750000 0.490000
vt 0.796822 0.485388
vt 0.841844 0.471731
vt 0.919706 0.419706
vt 0.580295 0.419706
vt 0.949553 0.383337
vt 0.550447 0.383337
vt 0.971731 0.341844
vt 0.985388 0.296822
vt 0.528269 0.341844
vt 0.990000 0.250000
vt 0.510000 0.250000
vt 0.985388 0.203178
vt 0.514611 0.203179
vt 0.971731 0.158156
vt 0.949553 0.116663
vt 0.528269 0.158156
vt 0.919706 0.080294
vt 0.580294 0.080294
vt 0.883337 0.050447
vt 0.616663 0.050447
vt 0.841844 0.028269
vt 0.796822 0.014612
vt 0.658156 0.028269
vt 0.750000 0.010000
vt 0.703178 0.014612
vt 0.550447 0.116663
vt 0.514612 0.296822
vt 0.000000 0.000000
vt 0.000000 0.000000
vt 0.000000 0.000000
vt 0.000000 0.000000
vt 0.250000 0.010000
vt 0.000000 0.000000
vt 0.000000 0.000000
vt 0.437500 1.000000
vt 0.000000 0.000000
vt 0.500000 1.000000
vt 0.468750 0.500000
vt 0.500000 0.500000
vt 0.468750 1.000000
vt 0.437500 0.500000
vt 0.406250 0.500000
vt 0.406250 1.000000
vt 0.375000 0.500000
vt 0.375000 1.000000
vt 0.343750 0.500000
vt 0.343750 1.000000
vt 0.312500 0.500000
vt 0.312500 1.000000
vt 0.281250 0.500000
vt 0.281250 1.000000
vt 0.250000 0.500000
vt 0.250000 1.000000
vt 0.218750 0.500000
vt 0.218750 1.000000
vt 0.187500 0.500000
vt 0.187500 1.000000
vt 0.156250 0.500000
vt 0.156250 1.000000
vt 0.125000 0.500000
vt 0.125000 1.000000
vt 0.093750 0.500000
vt 0.093750 1.000000
vt 0.062500 0.500000
vt 0.062500 1.000000
vt 0.031250 0.500000
vt 0.000000 0.000000
vt 0.031250 1.000000
vt 0.000000 0.000000
vt 0.000000 0.000000
vt 0.000000 1.000000
vt 0.750000 0.010000
vn -1.0000 0.0000 0.0000
vn 0.0000 0.0000 -1.0000
vn 1.0000 0.0000 0.0000
vn 0.0000 0.0000 1.0000
vn 0.0000 -1.0000 0.0000
vn 0.0000 1.0000 0.0000
vn 0.0000 -0.2165 -0.9763
vn 0.0000 -0.5640 -0.8258
vn 0.0000 -0.7691 -0.6391
vn 0.0000 -0.8795 -0.4760
vn 0.0000 -0.9395 -0.3425
vn 0.0000 -0.9730 -0.2310
vn 0.0000 -0.9910 -0.1335
vn -0.0000 -0.9990 -0.0437
vn 0.0000 -0.9990 0.0437
vn 0.0000 -0.9910 0.1335
vn 0.0000 -0.9730 0.2310
vn 0.0000 -0.9395 0.3425
vn 0.0000 -0.8795 0.4760
vn 0.0000 -0.7691 0.6391
vn 0.0000 -0.5640 0.8258
vn 0.0000 -0.2165 0.9763
vn 0.0000 0.2165 0.9763
vn 0.0000 0.5640 0.8258
vn 0.0000 0.7691 0.6391
vn 0.0000 0.8794 0.4760
vn 0.0000 0.9395 0.3425
vn 0.0000 0.9730 0.2310
vn 0.0000 0.9910 0.1335
vn 0.0000 0.9990 0.0437
vn 0.0000 0.9990 -0.0437
vn 0.0000 0.9910 -0.1335
vn 0.0000 0.9730 -0.2310
vn 0.0000 0.9395 -0.3425
vn 0.0000 0.8794 -0.4760
vn 0.0000 0.7691 -0.6391
vn 0.0000 0.5640 -0.8258
vn 0.0000 0.2165 -0.9763
vn 0.0000 0.8795 0.4760
vn -1.0000 -0.0027 0.0022
vn -0.9997 -0.0127 0.0186
vn -1.0000 -0.0017 -0.0060
vn -1.0000 -0.0017 0.0000
vn -1.0000 -0.0034 -0.0075
vn -1.0000 -0.0027 -0.0022
vn -1.0000 -0.0025 -0.0013
vn -1.0000 -0.0023 -0.0008
vn -1.0000 -0.0021 -0.0005
vn -1.0000 -0.0019 -0.0003
vn -1.0000 -0.0018 -0.0001
vn -1.0000 -0.0018 0.0001
vn -1.0000 -0.0019 0.0003
vn -1.0000 -0.0021 0.0005
vn -1.0000 -0.0023 0.0008
vn -1.0000 -0.0025 0.0013
usemtl mat.061
s off
f 2/1/1 3/2/1 1/3/1
f 4/4/2 7/5/2 3/2/2
f 8/6/3 5/7/3 7/5/3
f 6/8/4 1/9/4 5/7/4
f 7/5/5 1/10/5 3/11/5
f 4/12/6 6/8/6 8/6/6
f 2/1/1 4/4/1 3/2/1
f 4/4/2 8/6/2 7/5/2
f 8/6/3 6/8/3 5/7/3
f 6/8/4 2/13/4 1/9/4
f 7/5/5 5/7/5 1/10/5
f 4/12/6 2/14/6 6/8/6
usemtl Material.040
f 48/15/7 49/16/7 47/17/7
f 50/18/8 51/19/8 49/16/8
f 52/20/9 53/21/9 51/19/9
f 54/22/10 55/23/10 53/21/10
f 56/24/11 57/25/11 55/23/11
f 58/26/12 59/27/12 57/25/12
f 60/28/13 61/29/13 59/27/13
f 62/30/14 63/31/14 61/29/14
f 64/32/15 65/33/15 63/31/15
f 66/34/16 67/35/16 65/33/16
f 68/36/17 69/37/17 67/35/17
f 70/38/18 71/39/18 69/37/18
f 72/40/19 73/41/19 71/39/19
f 74/42/20 75/43/20 73/41/20
f 76/44/21 77/45/21 75/43/21
f 78/46/22 79/47/22 77/45/22
f 80/48/23 81/49/23 79/47/23
f 82/50/24 83/51/24 81/49/24
f 84/52/25 85/53/25 83/51/25
f 86/54/26 87/55/26 85/53/26
f 88/56/27 89/57/27 87/55/27
f 90/58/28 91/59/28 89/57/28
f 92/60/29 93/61/29 91/59/29
f 94/62/30 95/63/30 93/61/30
f 96/64/31 97/65/31 95/63/31
f 98/66/32 99/67/32 97/65/32
f 100/68/33 101/69/33 99/67/33
f 102/70/34 103/71/34 101/69/34
f 104/72/35 105/73/35 103/71/35
f 106/74/36 107/75/36 105/73/36
f 56/76/3 54/77/3 104/78/3
f 108/79/37 109/80/37 107/75/37
f 110/81/38 47/82/38 109/80/38
f 105/83/1 107/84/1 53/85/1
f 48/15/7 50/18/7 49/16/7
f 50/18/8 52/20/8 51/19/8
f 52/20/9 54/22/9 53/21/9
f 54/22/10 56/24/10 55/23/10
f 56/24/11 58/26/11 57/25/11
f 58/26/12 60/28/12 59/27/12
f 60/28/13 62/30/13 61/29/13
f 62/30/14 64/32/14 63/31/14
f 64/32/15 66/34/15 65/33/15
f 66/34/16 68/36/16 67/35/16
f 68/36/17 70/38/17 69/37/17
f 70/38/18 72/40/18 71/39/18
f 72/40/19 74/42/19 73/41/19
f 74/42/20 76/44/20 75/43/20
f 76/44/21 78/46/21 77/45/21
f 78/46/22 80/48/22 79/47/22
f 80/48/23 82/50/23 81/49/23
f 82/50/24 84/52/24 83/51/24
f 84/52/25 86/54/25 85/53/25
f 86/54/39 88/56/39 87/55/39
f 88/56/27 90/58/27 89/57/27
f 90/58/28 92/60/28 91/59/28
f 92/60/29 94/62/29 93/61/29
f 94/62/30 96/64/30 95/63/30
f 96/64/31 98/66/31 97/65/31
f 98/66/32 100/68/32 99/67/32
f 100/68/33 102/70/33 101/69/33
f 102/70/34 104/72/34 103/71/34
f 104/72/35 106/74/35 105/73/35
f 106/74/36 108/79/36 107/75/36
f 52/86/3 50/87/3 110/88/3
f 50/87/3 48/89/3 110/88/3
f 110/88/3 108/90/3 52/86/3
f 108/90/3 106/91/3 52/86/3
f 106/91/3 104/78/3 54/77/3
f 52/86/3 106/91/3 54/77/3
f 104/78/3 102/92/3 56/76/3
f 102/92/3 100/93/3 58/94/3
f 56/76/3 102/92/3 58/94/3
f 100/93/3 98/95/3 62/96/3
f 98/95/3 96/97/3 64/98/3
f 96/97/3 94/99/3 66/100/3
f 94/99/3 92/101/3 68/102/3
f 92/101/3 90/103/3 68/102/3
f 90/103/3 88/104/3 70/105/3
f 68/102/3 90/103/3 70/105/3
f 88/104/3 86/106/3 72/107/3
f 86/106/3 84/108/3 74/109/3
f 72/107/3 86/106/3 74/109/3
f 84/108/3 82/110/3 76/111/3
f 82/110/3 80/112/3 78/113/3
f 76/111/3 82/110/3 78/113/3
f 76/111/3 74/109/3 84/108/3
f 72/107/3 70/105/3 88/104/3
f 68/102/3 66/100/3 94/99/3
f 66/100/3 64/98/3 96/97/3
f 64/98/3 62/96/3 98/95/3
f 62/96/3 60/114/3 100/93/3
f 60/114/3 58/94/3 100/93/3
f 108/79/37 110/81/37 109/80/37
f 110/81/38 48/115/38 47/82/38
f 109/116/1 47/117/1 49/118/1
f 49/118/1 51/119/1 109/116/1
f 51/119/1 53/85/1 107/84/1
f 109/116/1 51/119/1 107/84/1
f 53/85/1 55/120/1 103/121/1
f 55/120/1 57/122/1 101/123/1
f 57/122/1 59/124/1 101/123/1
f 59/124/1 61/125/1 99/126/1
f 101/123/1 59/124/1 99/126/1
f 61/125/1 63/127/1 95/128/1
f 63/127/1 65/129/1 93/130/1
f 65/129/1 67/131/1 93/130/1
f 67/131/1 69/132/1 91/133/1
f 93/130/1 67/131/1 91/133/1
f 69/132/1 71/134/1 87/135/1
f 71/134/1 73/136/1 85/137/1
f 73/136/1 75/138/1 85/137/1
f 75/138/1 77/139/1 83/140/1
f 85/137/1 75/138/1 83/140/1
f 77/139/1 79/141/1 81/142/1
f 81/142/1 83/140/1 77/139/1
f 85/137/1 87/135/1 71/134/1
f 87/135/1 89/143/1 69/132/1
f 89/143/1 91/133/1 69/132/1
f 93/130/1 95/128/1 63/127/1
f 95/128/1 97/144/1 61/125/1
f 97/144/1 99/126/1 61/125/1
f 101/123/1 103/121/1 55/120/1
f 103/121/1 105/83/1 53/85/1
usemtl Material.039
f 111/145/2 13/146/2 114/147/2
f 11/148/4 16/149/4 9/150/4
f 113/151/3 20/152/3 16/149/3
f 113/151/4 114/147/4 14/153/4
f 16/154/23 17/155/23 15/156/23
f 18/157/24 19/158/24 17/155/24
f 20/152/25 21/159/25 19/158/25
f 22/160/26 23/161/26 21/159/26
f 24/162/27 25/163/27 23/161/27
f 26/164/28 27/165/28 25/163/28
f 28/166/29 29/167/29 27/165/29
f 30/168/30 31/169/30 29/167/30
f 32/170/31 33/171/31 31/169/31
f 34/172/32 35/173/32 33/171/32
f 36/174/33 37/175/33 35/173/33
f 38/176/34 39/177/34 37/175/34
f 40/178/35 41/179/35 39/177/35
f 42/180/36 43/181/36 41/179/36
f 44/182/37 45/183/37 43/181/37
f 41/179/40 43/181/40 111/145/40
f 10/184/38 46/185/38 12/186/38
f 11/148/4 112/187/4 113/151/4
f 111/145/2 10/184/2 13/146/2
f 11/148/4 113/151/4 16/149/4
f 113/151/3 14/153/3 26/164/3
f 14/153/3 114/147/3 38/176/3
f 38/176/3 114/147/3 40/178/3
f 114/147/3 13/188/3 44/182/3
f 13/188/3 46/185/3 44/182/3
f 44/182/3 42/180/3 114/147/3
f 42/180/3 40/178/3 114/147/3
f 38/176/3 36/174/3 14/153/3
f 36/174/3 34/172/3 14/153/3
f 34/172/3 32/170/3 14/153/3
f 32/170/3 30/168/3 14/153/3
f 30/168/3 28/166/3 14/153/3
f 28/166/3 26/164/3 14/153/3
f 26/164/3 24/162/3 113/151/3
f 24/162/3 22/160/3 113/151/3
f 22/160/3 20/152/3 113/151/3
f 20/152/3 18/157/3 16/149/3
f 16/154/23 18/157/23 17/155/23
f 18/157/24 20/152/24 19/158/24
f 20/152/25 22/160/25 21/159/25
f 22/160/26 24/162/26 23/161/26
f 24/162/27 26/164/27 25/163/27
f 26/164/28 28/166/28 27/165/28
f 28/166/29 30/168/29 29/167/29
f 30/168/30 32/170/30 31/169/30
f 32/170/31 34/172/31 33/171/31
f 34/172/32 36/174/32 35/173/32
f 36/174/33 38/176/33 37/175/33
f 38/176/34 40/178/34 39/177/34
f 40/178/35 42/180/35 41/179/35
f 42/180/36 44/182/36 43/181/36
f 44/182/37 46/185/37 45/183/37
f 45/183/41 10/184/41 43/181/41
f 10/184/42 111/145/42 43/181/42
f 111/145/43 112/187/43 31/169/43
f 112/187/44 15/156/44 19/158/44
f 15/156/1 17/155/1 19/158/1
f 19/158/45 21/159/45 112/187/45
f 21/159/46 23/161/46 112/187/46
f 23/161/47 25/163/47 112/187/47
f 25/163/48 27/165/48 112/187/48
f 27/165/49 29/167/49 112/187/49
f 29/167/50 31/169/50 112/187/50
f 31/169/51 33/171/51 111/145/51
f 33/171/52 35/173/52 111/145/52
f 35/173/53 37/175/53 111/145/53
f 37/175/54 39/177/54 111/145/54
f 39/177/55 41/179/55 111/145/55
f 10/184/38 45/183/38 46/185/38
f 11/148/4 15/189/4 112/187/4
