# Blender v2.82 (sub 7) OBJ File: 'InitialFile.blend'
# www.blender.org
mtllib body_r_prox_pinvpin_collision.mtl
o body_r_prox_pinvpin_collision_Cube.017
v -0.010000 0.011250 0.010000
v -0.010000 0.020750 0.010000
v -0.010000 0.011250 -0.010000
v -0.010000 0.020750 -0.010000
v 0.010000 0.011250 0.010000
v 0.010000 0.020750 0.010000
v 0.010000 0.011250 -0.010000
v 0.010000 0.020750 -0.010000
v -0.010000 0.030750 0.010000
v -0.010000 0.030750 -0.010000
v 0.010000 0.030750 0.010000
v 0.010000 0.030750 -0.010000
v 0.010005 0.030750 -0.010000
v -0.010005 0.030750 0.010000
v 0.010005 0.030750 0.010000
v -0.010005 0.032701 0.009808
v 0.010005 0.032701 0.009808
v -0.010005 0.034577 0.009239
v 0.010005 0.034577 0.009239
v -0.010005 0.036306 0.008315
v 0.010005 0.036306 0.008315
v -0.010005 0.037821 0.007071
v 0.010005 0.037821 0.007071
v -0.010005 0.039065 0.005556
v 0.010005 0.039065 0.005556
v -0.010005 0.039989 0.003827
v 0.010005 0.039989 0.003827
v -0.010005 0.040558 0.001951
v 0.010005 0.040558 0.001951
v -0.010005 0.040750 -0.000000
v 0.010005 0.040750 -0.000000
v -0.010005 0.040558 -0.001951
v 0.010005 0.040558 -0.001951
v -0.010005 0.039989 -0.003827
v 0.010005 0.039989 -0.003827
v -0.010005 0.039065 -0.005556
v 0.010005 0.039065 -0.005556
v -0.010005 0.037821 -0.007071
v 0.010005 0.037821 -0.007071
v -0.010005 0.036306 -0.008315
v 0.010005 0.036306 -0.008315
v -0.010005 0.034577 -0.009239
v 0.010005 0.034577 -0.009239
v -0.010005 0.032701 -0.009808
v 0.010005 0.032701 -0.009808
v -0.009995 0.020750 -0.010000
v -0.009995 0.020750 0.010000
v 0.010005 0.020750 0.010000
v 0.010005 0.020750 -0.010000
v 0.010000 0.030750 -0.002500
v 0.011000 0.030750 -0.002500
v 0.010000 0.030262 -0.002452
v 0.011000 0.030262 -0.002452
v 0.010000 0.029793 -0.002310
v 0.011000 0.029793 -0.002310
v 0.010000 0.029361 -0.002079
v 0.011000 0.029361 -0.002079
v 0.010000 0.028982 -0.001768
v 0.011000 0.028982 -0.001768
v 0.010000 0.028671 -0.001389
v 0.011000 0.028671 -0.001389
v 0.010000 0.028440 -0.000957
v 0.011000 0.028440 -0.000957
v 0.010000 0.028298 -0.000488
v 0.011000 0.028298 -0.000488
v 0.010000 0.028250 -0.000000
v 0.011000 0.028250 -0.000000
v 0.010000 0.028298 0.000488
v 0.011000 0.028298 0.000488
v 0.010000 0.028440 0.000957
v 0.011000 0.028440 0.000957
v 0.010000 0.028671 0.001389
v 0.011000 0.028671 0.001389
v 0.010000 0.028982 0.001768
v 0.011000 0.028982 0.001768
v 0.010000 0.029361 0.002079
v 0.011000 0.029361 0.002079
v 0.010000 0.029793 0.002310
v 0.011000 0.029793 0.002310
v 0.010000 0.030262 0.002452
v 0.011000 0.030262 0.002452
v 0.010000 0.030750 0.002500
v 0.011000 0.030750 0.002500
v 0.010000 0.031238 0.002452
v 0.011000 0.031238 0.002452
v 0.010000 0.031707 0.002310
v 0.011000 0.031707 0.002310
v 0.010000 0.032139 0.002079
v 0.011000 0.032139 0.002079
v 0.010000 0.032518 0.001768
v 0.011000 0.032518 0.001768
v 0.010000 0.032829 0.001389
v 0.011000 0.032829 0.001389
v 0.010000 0.033060 0.000957
v 0.011000 0.033060 0.000957
v 0.010000 0.033202 0.000488
v 0.011000 0.033202 0.000488
v 0.010000 0.033250 -0.000000
v 0.011000 0.033250 -0.000000
v 0.010000 0.033202 -0.000488
v 0.011000 0.033202 -0.000488
v 0.010000 0.033060 -0.000957
v 0.011000 0.033060 -0.000957
v 0.010000 0.032829 -0.001389
v 0.011000 0.032829 -0.001389
v 0.010000 0.032518 -0.001768
v 0.011000 0.032518 -0.001768
v 0.010000 0.032139 -0.002079
v 0.011000 0.032139 -0.002079
v 0.010000 0.031707 -0.002310
v 0.011000 0.031707 -0.002310
v 0.010000 0.031238 -0.002452
v 0.011000 0.031238 -0.002452
v -0.011000 0.030750 -0.002500
v -0.010000 0.030750 -0.002500
v -0.011000 0.030262 -0.002452
v -0.010000 0.030262 -0.002452
v -0.011000 0.029793 -0.002310
v -0.010000 0.029793 -0.002310
v -0.011000 0.029361 -0.002079
v -0.010000 0.029361 -0.002079
v -0.011000 0.028982 -0.001768
v -0.010000 0.028982 -0.001768
v -0.011000 0.028671 -0.001389
v -0.010000 0.028671 -0.001389
v -0.011000 0.028440 -0.000957
v -0.010000 0.028440 -0.000957
v -0.011000 0.028298 -0.000488
v -0.010000 0.028298 -0.000488
v -0.011000 0.028250 -0.000000
v -0.010000 0.028250 -0.000000
v -0.011000 0.028298 0.000488
v -0.010000 0.028298 0.000488
v -0.011000 0.028440 0.000957
v -0.010000 0.028440 0.000957
v -0.011000 0.028671 0.001389
v -0.010000 0.028671 0.001389
v -0.011000 0.028982 0.001768
v -0.010000 0.028982 0.001768
v -0.011000 0.029361 0.002079
v -0.010000 0.029361 0.002079
v -0.011000 0.029793 0.002310
v -0.010000 0.029793 0.002310
v -0.011000 0.030262 0.002452
v -0.010000 0.030262 0.002452
v -0.011000 0.030750 0.002500
v -0.010000 0.030750 0.002500
v -0.011000 0.031238 0.002452
v -0.010000 0.031238 0.002452
v -0.011000 0.031707 0.002310
v -0.010000 0.031707 0.002310
v -0.011000 0.032139 0.002079
v -0.010000 0.032139 0.002079
v -0.011000 0.032518 0.001768
v -0.010000 0.032518 0.001768
v -0.011000 0.032829 0.001389
v -0.010000 0.032829 0.001389
v -0.011000 0.033060 0.000957
v -0.010000 0.033060 0.000957
v -0.011000 0.033202 0.000488
v -0.010000 0.033202 0.000488
v -0.011000 0.033250 -0.000000
v -0.010000 0.033250 -0.000000
v -0.011000 0.033202 -0.000488
v -0.010000 0.033202 -0.000488
v -0.011000 0.033060 -0.000957
v -0.010000 0.033060 -0.000957
v -0.011000 0.032829 -0.001389
v -0.010000 0.032829 -0.001389
v -0.011000 0.032518 -0.001768
v -0.010000 0.032518 -0.001768
v -0.011000 0.032139 -0.002079
v -0.010000 0.032139 -0.002079
v -0.011000 0.031707 -0.002310
v -0.010000 0.031707 -0.002310
v -0.011000 0.031238 -0.002452
v -0.010000 0.031238 -0.002452
vt 0.625000 0.000000
vt 0.375000 0.250000
vt 0.375000 0.000000
vt 0.625000 0.250000
vt 0.375000 0.500000
vt 0.625000 0.500000
vt 0.375000 0.750000
vt 0.625000 0.750000
vt 0.375000 1.000000
vt 0.125000 0.750000
vt 0.125000 0.500000
vt 0.875000 0.500000
vt 0.625000 1.000000
vt 0.875000 0.750000
vt 0.329159 0.681784
vt 0.534928 0.984764
vt 0.329160 0.984764
vt 0.463418 0.651323
vt 0.463418 0.651399
vt 0.463418 0.348343
vt 0.147746 0.359958
vt 0.186384 0.351338
vt 0.186384 0.648496
vt 0.835453 0.348268
vt 0.795117 0.651399
vt 0.795117 0.348268
vt 0.755911 0.651399
vt 0.755911 0.348268
vt 0.719341 0.651399
vt 0.719341 0.348268
vt 0.686813 0.348268
vt 0.014494 0.681712
vt 0.043045 0.984843
vt 0.014494 0.984843
vt 0.043045 0.681712
vt 0.076617 0.984843
vt 0.076617 0.681712
vt 0.113921 0.984843
vt 0.113921 0.681712
vt 0.153522 0.984843
vt 0.153522 0.681712
vt 0.193900 0.984843
vt 0.193900 0.681712
vt 0.233501 0.984843
vt 0.233501 0.681712
vt 0.270804 0.984843
vt 0.270804 0.681712
vt 0.304377 0.984843
vt 0.850027 0.348268
vt 0.880075 0.651399
vt 0.850027 0.651399
vt 0.880075 0.348268
vt 0.914808 0.651399
vt 0.914808 0.348268
vt 0.952890 0.651399
vt 0.992858 0.651323
vt 0.952890 0.348268
vt 0.992858 0.348343
vt 0.669097 0.348419
vt 0.669097 0.651399
vt 0.474760 0.253633
vt 0.454163 0.261046
vt 0.454163 0.253633
vt 0.474760 0.261046
vt 0.454163 0.268239
vt 0.474760 0.268239
vt 0.454163 0.274935
vt 0.474760 0.274935
vt 0.454163 0.280877
vt 0.499477 0.221803
vt 0.520074 0.216554
vt 0.520074 0.221803
vt 0.499477 0.216554
vt 0.520074 0.210381
vt 0.499477 0.210381
vt 0.520074 0.203521
vt 0.499477 0.203521
vt 0.520074 0.196240
vt 0.499477 0.196240
vt 0.520074 0.188815
vt 0.499477 0.188815
vt 0.520074 0.181534
vt 0.499477 0.181534
vt 0.520074 0.174675
vt 0.499477 0.168502
vt 0.520074 0.168502
vt 0.497417 0.280828
vt 0.476820 0.275347
vt 0.497417 0.275347
vt 0.497417 0.268994
vt 0.476820 0.268994
vt 0.497417 0.262014
vt 0.476820 0.262014
vt 0.497417 0.254674
vt 0.476820 0.254674
vt 0.497417 0.247258
vt 0.476820 0.247258
vt 0.497417 0.240049
vt 0.476820 0.240049
vt 0.497417 0.233324
vt 0.476820 0.233324
vt 0.497417 0.227343
vt 0.542731 0.227334
vt 0.522134 0.232584
vt 0.522134 0.227334
vt 0.542730 0.232584
vt 0.522134 0.238757
vt 0.542731 0.238757
vt 0.522134 0.245616
vt 0.542731 0.245616
vt 0.522134 0.252898
vt 0.542731 0.252898
vt 0.522134 0.260322
vt 0.542730 0.260322
vt 0.522134 0.267604
vt 0.542731 0.267604
vt 0.522134 0.274463
vt 0.542731 0.274463
vt 0.522134 0.280636
vt 0.474760 0.227370
vt 0.454163 0.232895
vt 0.454163 0.227370
vt 0.474760 0.232895
vt 0.454163 0.239282
vt 0.469698 0.017433
vt 0.476836 0.012183
vt 0.476836 0.070735
vt 0.474760 0.239282
vt 0.454163 0.246284
vt 0.474760 0.246284
vt 0.474760 0.194775
vt 0.454163 0.202188
vt 0.454163 0.194775
vt 0.474760 0.202188
vt 0.454163 0.209381
vt 0.474760 0.209381
vt 0.454163 0.216077
vt 0.474760 0.216077
vt 0.454163 0.222019
vt 0.522134 0.221803
vt 0.542731 0.216554
vt 0.542731 0.221803
vt 0.522134 0.210381
vt 0.542731 0.210381
vt 0.542731 0.203521
vt 0.522134 0.203521
vt 0.542731 0.196240
vt 0.522134 0.196240
vt 0.542731 0.188815
vt 0.522134 0.188815
vt 0.542731 0.181534
vt 0.522134 0.181534
vt 0.542731 0.174675
vt 0.522134 0.168502
vt 0.542731 0.168502
vt 0.497417 0.221995
vt 0.476820 0.216514
vt 0.497417 0.216514
vt 0.497417 0.210161
vt 0.476820 0.210161
vt 0.497417 0.203181
vt 0.476820 0.203181
vt 0.497417 0.195842
vt 0.476820 0.195842
vt 0.497417 0.188425
vt 0.476820 0.188425
vt 0.497417 0.181216
vt 0.476820 0.181216
vt 0.497417 0.174492
vt 0.476820 0.174492
vt 0.497417 0.168511
vt 0.520074 0.227334
vt 0.499477 0.232584
vt 0.499477 0.227334
vt 0.520074 0.232584
vt 0.499477 0.238757
vt 0.520074 0.238757
vt 0.499477 0.245616
vt 0.520074 0.245616
vt 0.499477 0.252898
vt 0.520074 0.252898
vt 0.499477 0.260322
vt 0.520074 0.260322
vt 0.499477 0.267604
vt 0.520074 0.267604
vt 0.499477 0.274463
vt 0.520074 0.274463
vt 0.499477 0.280636
vt 0.474760 0.168512
vt 0.454163 0.174037
vt 0.454163 0.168512
vt 0.474760 0.174037
vt 0.454163 0.180423
vt 0.474760 0.180423
vt 0.454163 0.187426
vt 0.474760 0.187426
vt 0.476836 0.095102
vt 0.485229 0.090977
vt 0.485229 0.157778
vt 0.226567 0.015149
vt 0.432537 0.015149
vt 0.226567 0.318129
vt 0.534928 0.681708
vt 0.226567 0.348427
vt 0.226567 0.651407
vt 0.432537 0.348427
vt 0.432537 0.651407
vt 0.147745 0.639875
vt 0.112136 0.625876
vt 0.112136 0.373957
vt 0.080924 0.607036
vt 0.080924 0.392797
vt 0.055309 0.584080
vt 0.055309 0.415753
vt 0.036275 0.557889
vt 0.036276 0.441944
vt 0.024555 0.529471
vt 0.020597 0.499916
vt 0.024555 0.470362
vt 0.835453 0.651399
vt 0.686813 0.651399
vt 0.304377 0.681712
vt 0.463418 0.348268
vt 0.474760 0.280877
vt 0.499477 0.174675
vt 0.476820 0.280828
vt 0.476820 0.227343
vt 0.542731 0.280636
vt 0.485229 0.008059
vt 0.494555 0.005217
vt 0.504455 0.079149
vt 0.504455 0.003769
vt 0.514550 0.079149
vt 0.514550 0.003769
vt 0.524450 0.077701
vt 0.524450 0.005217
vt 0.533776 0.074860
vt 0.533776 0.008059
vt 0.542169 0.012183
vt 0.542169 0.070735
vt 0.549307 0.017433
vt 0.549307 0.065485
vt 0.554915 0.023606
vt 0.554915 0.059312
vt 0.558778 0.030465
vt 0.560747 0.045171
vt 0.560747 0.037747
vt 0.558778 0.052453
vt 0.494555 0.077701
vt 0.485229 0.074860
vt 0.469698 0.065485
vt 0.464090 0.059312
vt 0.464090 0.023606
vt 0.460227 0.052453
vt 0.458258 0.037747
vt 0.458258 0.045171
vt 0.460227 0.030465
vt 0.474760 0.222019
vt 0.522134 0.216554
vt 0.522134 0.174675
vt 0.476820 0.221995
vt 0.476820 0.168511
vt 0.520074 0.280636
vt 0.494555 0.088136
vt 0.504455 0.086687
vt 0.514550 0.162067
vt 0.514550 0.086687
vt 0.524450 0.160619
vt 0.524450 0.088136
vt 0.533776 0.090977
vt 0.533776 0.157778
vt 0.542169 0.095102
vt 0.549307 0.148403
vt 0.549307 0.100351
vt 0.554915 0.142230
vt 0.554915 0.106524
vt 0.558778 0.113384
vt 0.558778 0.135371
vt 0.560747 0.120665
vt 0.560747 0.128090
vt 0.542169 0.153653
vt 0.504455 0.162067
vt 0.494555 0.160619
vt 0.476836 0.153653
vt 0.469698 0.100351
vt 0.469698 0.148403
vt 0.464090 0.106524
vt 0.464090 0.142230
vt 0.460227 0.135371
vt 0.460227 0.113384
vt 0.458258 0.128089
vt 0.458258 0.120665
vt 0.432537 0.318129
vt 0.186384 0.315218
vt 0.147746 0.306597
vt 0.186384 0.018060
vt 0.112136 0.292598
vt 0.147746 0.026680
vt 0.080924 0.273759
vt 0.112136 0.040680
vt 0.055309 0.250802
vt 0.080924 0.059519
vt 0.036276 0.224612
vt 0.055309 0.082476
vt 0.024555 0.196193
vt 0.024555 0.137085
vt 0.020597 0.166639
vt 0.036275 0.108666
vn -1.0000 0.0000 0.0000
vn 0.0000 0.0000 -1.0000
vn 1.0000 0.0000 0.0000
vn 0.0000 0.0000 1.0000
vn 0.0000 -1.0000 0.0000
vn 0.0000 1.0000 0.0000
vn -0.0000 0.0980 0.9952
vn 0.0000 0.2903 0.9569
vn 0.0000 0.4714 0.8819
vn 0.0000 0.6344 0.7730
vn 0.0000 0.7730 0.6344
vn 0.0000 0.8819 0.4714
vn 0.0000 0.9569 0.2903
vn 0.0000 0.9952 0.0980
vn 0.0000 0.9952 -0.0980
vn 0.0000 0.9569 -0.2903
vn 0.0000 0.8819 -0.4714
vn 0.0000 0.7730 -0.6344
vn 0.0000 0.6344 -0.7730
vn 0.0000 0.4714 -0.8819
vn 0.0000 0.2903 -0.9569
vn 0.0000 0.0980 -0.9952
vn 0.0000 -0.0980 -0.9952
vn 0.0000 -0.2903 -0.9569
vn 0.0000 -0.4714 -0.8819
vn 0.0000 -0.6344 -0.7730
vn -0.0000 -0.7730 -0.6344
vn 0.0000 -0.8819 -0.4714
vn -0.0000 -0.9569 -0.2903
vn 0.0000 -0.9952 -0.0980
vn 0.0000 -0.9952 0.0980
vn 0.0000 -0.9569 0.2903
vn 0.0000 -0.8819 0.4714
vn -0.0000 -0.7730 0.6344
vn 0.0000 -0.6344 0.7730
vn 0.0000 -0.4714 0.8819
vn 0.0000 -0.2903 0.9569
vn 0.0000 -0.0980 0.9952
vn -1.0000 -0.0025 -0.0002
vn -1.0000 -0.0005 -0.0002
vn -1.0000 -0.0010 0.0000
usemtl mat.007
s off
f 2/1/1 3/2/1 1/3/1
f 4/4/2 7/5/2 3/2/2
f 8/6/3 5/7/3 7/5/3
f 6/8/4 1/9/4 5/7/4
f 7/5/5 1/10/5 3/11/5
f 4/12/6 6/8/6 8/6/6
f 2/1/1 4/4/1 3/2/1
f 4/4/2 8/6/2 7/5/2
f 8/6/3 6/8/3 5/7/3
f 6/8/4 2/13/4 1/9/4
f 7/5/5 5/7/5 1/10/5
f 4/12/6 2/14/6 6/8/6
usemtl Pin_Texture.003
f 46/15/2 13/16/2 49/17/2
f 11/18/4 15/19/4 9/20/4
f 42/21/1 44/22/1 16/23/1
f 14/24/7 17/25/7 16/26/7
f 16/26/8 19/27/8 18/28/8
f 18/28/9 21/29/9 20/30/9
f 21/29/10 22/31/10 20/30/10
f 23/32/11 24/33/11 22/34/11
f 25/35/12 26/36/12 24/33/12
f 27/37/13 28/38/13 26/36/13
f 29/39/14 30/40/14 28/38/14
f 31/41/15 32/42/15 30/40/15
f 33/43/16 34/44/16 32/42/16
f 35/45/17 36/46/17 34/44/17
f 37/47/18 38/48/18 36/46/18
f 39/49/19 40/50/19 38/51/19
f 41/52/20 42/53/20 40/50/20
f 43/54/21 44/55/21 42/53/21
f 10/56/22 45/57/22 12/58/22
f 11/18/4 47/59/4 48/60/4
f 51/61/23 52/62/23 50/63/23
f 53/64/24 54/65/24 52/62/24
f 55/66/25 56/67/25 54/65/25
f 57/68/26 58/69/26 56/67/26
f 59/70/27 60/71/27 58/72/27
f 61/73/28 62/74/28 60/71/28
f 63/75/29 64/76/29 62/74/29
f 65/77/30 66/78/30 64/76/30
f 67/79/31 68/80/31 66/78/31
f 69/81/32 70/82/32 68/80/32
f 71/83/33 72/84/33 70/82/33
f 72/84/34 75/85/34 74/86/34
f 74/87/35 77/88/35 76/89/35
f 77/88/36 78/90/36 76/89/36
f 79/91/37 80/92/37 78/90/37
f 81/93/38 82/94/38 80/92/38
f 83/95/7 84/96/7 82/94/7
f 85/97/8 86/98/8 84/96/8
f 87/99/9 88/100/9 86/98/9
f 89/101/10 90/102/10 88/100/10
f 91/103/11 92/104/11 90/105/11
f 93/106/12 94/107/12 92/104/12
f 95/108/13 96/109/13 94/107/13
f 97/110/14 98/111/14 96/109/14
f 99/112/15 100/113/15 98/111/15
f 101/114/16 102/115/16 100/113/16
f 103/116/17 104/117/17 102/115/17
f 105/118/18 106/119/18 104/117/18
f 107/120/19 108/121/19 106/122/19
f 109/123/20 110/124/20 108/121/20
f 59/125/3 57/126/3 75/127/3
f 111/128/21 112/129/21 110/124/21
f 113/130/22 50/63/22 112/129/22
f 115/131/23 116/132/23 114/133/23
f 117/134/24 118/135/24 116/132/24
f 119/136/25 120/137/25 118/135/25
f 121/138/26 122/139/26 120/137/26
f 123/140/27 124/141/27 122/142/27
f 124/141/28 127/143/28 126/144/28
f 127/143/29 128/145/29 126/144/29
f 129/146/30 130/147/30 128/145/30
f 131/148/31 132/149/31 130/147/31
f 133/150/32 134/151/32 132/149/32
f 135/152/33 136/153/33 134/151/33
f 136/153/34 139/154/34 138/155/34
f 138/156/35 141/157/35 140/158/35
f 141/157/36 142/159/36 140/158/36
f 143/160/37 144/161/37 142/159/37
f 145/162/38 146/163/38 144/161/38
f 147/164/7 148/165/7 146/163/7
f 149/166/8 150/167/8 148/165/8
f 151/168/9 152/169/9 150/167/9
f 153/170/10 154/171/10 152/169/10
f 155/172/11 156/173/11 154/174/11
f 157/175/12 158/176/12 156/173/12
f 159/177/13 160/178/13 158/176/13
f 161/179/14 162/180/14 160/178/14
f 163/181/15 164/182/15 162/180/15
f 165/183/16 166/184/16 164/182/16
f 167/185/17 168/186/17 166/184/17
f 169/187/18 170/188/18 168/186/18
f 171/189/19 172/190/19 170/191/19
f 173/192/20 174/193/20 172/190/20
f 175/194/21 176/195/21 174/193/21
f 177/196/22 114/133/22 176/195/22
f 172/197/1 174/198/1 152/199/1
f 15/200/3 48/201/3 13/202/3
f 46/15/2 10/203/2 13/16/2
f 11/18/4 48/60/4 15/19/4
f 44/22/39 10/204/39 14/205/39
f 10/204/40 46/206/40 14/205/40
f 46/206/41 47/207/41 14/205/41
f 14/205/1 16/23/1 44/22/1
f 16/23/1 18/208/1 42/21/1
f 18/208/1 20/209/1 40/210/1
f 20/209/1 22/211/1 38/212/1
f 22/211/1 24/213/1 36/214/1
f 24/213/1 26/215/1 34/216/1
f 26/215/1 28/217/1 34/216/1
f 28/217/1 30/218/1 32/219/1
f 34/216/1 28/217/1 32/219/1
f 34/216/1 36/214/1 24/213/1
f 36/214/1 38/212/1 22/211/1
f 38/212/1 40/210/1 20/209/1
f 40/210/1 42/21/1 18/208/1
f 14/24/7 15/220/7 17/25/7
f 16/26/8 17/25/8 19/27/8
f 18/28/9 19/27/9 21/29/9
f 21/29/10 23/221/10 22/31/10
f 23/32/11 25/35/11 24/33/11
f 25/35/12 27/37/12 26/36/12
f 27/37/13 29/39/13 28/38/13
f 29/39/14 31/41/14 30/40/14
f 31/41/15 33/43/15 32/42/15
f 33/43/16 35/45/16 34/44/16
f 35/45/17 37/47/17 36/46/17
f 37/47/18 39/222/18 38/48/18
f 39/49/19 41/52/19 40/50/19
f 41/52/20 43/54/20 42/53/20
f 43/54/21 45/57/21 44/55/21
f 10/56/22 44/55/22 45/57/22
f 11/18/4 14/223/4 47/59/4
f 51/61/23 53/64/23 52/62/23
f 53/64/24 55/66/24 54/65/24
f 55/66/25 57/68/25 56/67/25
f 57/68/26 59/224/26 58/69/26
f 59/70/27 61/73/27 60/71/27
f 61/73/28 63/75/28 62/74/28
f 63/75/29 65/77/29 64/76/29
f 65/77/30 67/79/30 66/78/30
f 67/79/31 69/81/31 68/80/31
f 69/81/32 71/83/32 70/82/32
f 71/83/33 73/225/33 72/84/33
f 72/84/34 73/225/34 75/85/34
f 74/87/35 75/226/35 77/88/35
f 77/88/36 79/91/36 78/90/36
f 79/91/37 81/93/37 80/92/37
f 81/93/38 83/95/38 82/94/38
f 83/95/7 85/97/7 84/96/7
f 85/97/8 87/99/8 86/98/8
f 87/99/9 89/101/9 88/100/9
f 89/101/10 91/227/10 90/102/10
f 91/103/11 93/106/11 92/104/11
f 93/106/12 95/108/12 94/107/12
f 95/108/13 97/110/13 96/109/13
f 97/110/14 99/112/14 98/111/14
f 99/112/15 101/114/15 100/113/15
f 101/114/16 103/116/16 102/115/16
f 103/116/17 105/118/17 104/117/17
f 105/118/18 107/228/18 106/119/18
f 107/120/19 109/123/19 108/121/19
f 109/123/20 111/128/20 110/124/20
f 55/229/3 53/230/3 81/231/3
f 53/230/3 51/232/3 83/233/3
f 51/232/3 113/234/3 85/235/3
f 113/234/3 111/236/3 87/237/3
f 111/236/3 109/238/3 87/237/3
f 109/238/3 107/239/3 89/240/3
f 87/237/3 109/238/3 89/240/3
f 107/239/3 105/241/3 91/242/3
f 105/241/3 103/243/3 93/244/3
f 91/242/3 105/241/3 93/244/3
f 103/243/3 101/245/3 97/246/3
f 101/245/3 99/247/3 97/246/3
f 97/246/3 95/248/3 103/243/3
f 95/248/3 93/244/3 103/243/3
f 91/242/3 89/240/3 107/239/3
f 87/237/3 85/235/3 113/234/3
f 85/235/3 83/233/3 51/232/3
f 83/233/3 81/231/3 53/230/3
f 81/231/3 79/249/3 55/229/3
f 79/249/3 77/250/3 55/229/3
f 77/250/3 75/127/3 57/126/3
f 55/229/3 77/250/3 57/126/3
f 75/127/3 73/251/3 59/125/3
f 73/251/3 71/252/3 61/253/3
f 59/125/3 73/251/3 61/253/3
f 71/252/3 69/254/3 65/255/3
f 69/254/3 67/256/3 65/255/3
f 65/255/3 63/257/3 71/252/3
f 63/257/3 61/253/3 71/252/3
f 111/128/21 113/130/21 112/129/21
f 113/130/22 51/61/22 50/63/22
f 115/131/23 117/134/23 116/132/23
f 117/134/24 119/136/24 118/135/24
f 119/136/25 121/138/25 120/137/25
f 121/138/26 123/258/26 122/139/26
f 123/140/27 125/259/27 124/141/27
f 124/141/28 125/259/28 127/143/28
f 127/143/29 129/146/29 128/145/29
f 129/146/30 131/148/30 130/147/30
f 131/148/31 133/150/31 132/149/31
f 133/150/32 135/152/32 134/151/32
f 135/152/33 137/260/33 136/153/33
f 136/153/34 137/260/34 139/154/34
f 138/156/35 139/261/35 141/157/35
f 141/157/36 143/160/36 142/159/36
f 143/160/37 145/162/37 144/161/37
f 145/162/38 147/164/38 146/163/38
f 147/164/7 149/166/7 148/165/7
f 149/166/8 151/168/8 150/167/8
f 151/168/9 153/170/9 152/169/9
f 153/170/10 155/262/10 154/171/10
f 155/172/11 157/175/11 156/173/11
f 157/175/12 159/177/12 158/176/12
f 159/177/13 161/179/13 160/178/13
f 161/179/14 163/181/14 162/180/14
f 163/181/15 165/183/15 164/182/15
f 165/183/16 167/185/16 166/184/16
f 167/185/17 169/187/17 168/186/17
f 169/187/18 171/263/18 170/188/18
f 171/189/19 173/192/19 172/190/19
f 173/192/20 175/194/20 174/193/20
f 175/194/21 177/196/21 176/195/21
f 177/196/22 115/131/22 114/133/22
f 176/264/1 114/265/1 146/266/1
f 114/265/1 116/267/1 144/268/1
f 116/267/1 118/269/1 144/268/1
f 118/269/1 120/270/1 142/271/1
f 144/268/1 118/269/1 142/271/1
f 120/270/1 122/272/1 138/273/1
f 122/272/1 124/274/1 136/275/1
f 124/274/1 126/276/1 136/275/1
f 126/276/1 128/277/1 134/278/1
f 136/275/1 126/276/1 134/278/1
f 128/277/1 130/279/1 132/280/1
f 132/280/1 134/278/1 128/277/1
f 136/275/1 138/273/1 122/272/1
f 138/273/1 140/281/1 120/270/1
f 140/281/1 142/271/1 120/270/1
f 144/268/1 146/266/1 114/265/1
f 146/266/1 148/282/1 176/264/1
f 148/282/1 150/283/1 176/264/1
f 150/283/1 152/199/1 174/198/1
f 176/264/1 150/283/1 174/198/1
f 152/199/1 154/284/1 170/285/1
f 154/284/1 156/286/1 168/287/1
f 156/286/1 158/288/1 168/287/1
f 158/288/1 160/289/1 166/290/1
f 168/287/1 158/288/1 166/290/1
f 160/289/1 162/291/1 164/292/1
f 164/292/1 166/290/1 160/289/1
f 168/287/1 170/285/1 154/284/1
f 170/285/1 172/197/1 152/199/1
f 48/201/3 49/293/3 13/202/3
f 13/202/3 45/294/3 15/200/3
f 45/294/3 43/295/3 17/296/3
f 15/200/3 45/294/3 17/296/3
f 43/295/3 41/297/3 19/298/3
f 41/297/3 39/299/3 21/300/3
f 19/298/3 41/297/3 21/300/3
f 39/299/3 37/301/3 23/302/3
f 37/301/3 35/303/3 25/304/3
f 23/302/3 37/301/3 25/304/3
f 35/303/3 33/305/3 29/306/3
f 33/305/3 31/307/3 29/306/3
f 29/306/3 27/308/3 35/303/3
f 27/308/3 25/304/3 35/303/3
f 23/302/3 21/300/3 39/299/3
f 19/298/3 17/296/3 43/295/3
